<svg width="99" height="19" viewBox="0 0 99 19" xmlns="http://www.w3.org/2000/svg"><title>amazonpay_b&amp;w</title><g fill="#333" fill-rule="evenodd"><path d="M38.73 14.73a23.7 23.7 0 0 1-13.41 4.1 24.26 24.26 0 0 1-16.39-6.25c-.34-.31 0-.73.37-.49a33 33 0 0 0 16.4 4.35 32.56 32.56 0 0 0 12.51-2.56c.61-.26 1.12.41.52.85z"/><path d="M40.24 13c-.46-.6-3.06-.28-4.23-.14-.36 0-.41-.27-.09-.5 2.07-1.45 5.48-1 5.87-.54.39.46-.1 3.9-2 5.53-.3.25-.58.11-.45-.22.44-1.09 1.42-3.54 1-4.13h-.1zM36.09 2.07V.65a.34.34 0 0 1 .36-.35h6.35a.36.36 0 0 1 .37.36v1.21a2.16 2.16 0 0 1-.48.89l-3.29 4.7a7 7 0 0 1 3.6.78.64.64 0 0 1 .34.55v1.51c0 .21-.23.45-.47.32a7.32 7.32 0 0 0-6.71 0c-.22.11-.45-.12-.45-.33V8.87a1.7 1.7 0 0 1 .23-1l3.82-5.47h-3.3a.35.35 0 0 1-.37-.36v.03zm-23.17 8.85H11a.37.37 0 0 1-.35-.32V.68A.37.37 0 0 1 11 .32h1.8a.37.37 0 0 1 .35.33V2a2.65 2.65 0 0 1 5.05 0 2.85 2.85 0 0 1 4.91-.75c.61.83.49 2 .49 3.11v6.26a.37.37 0 0 1-.38.35h-1.88a.35.35 0 0 1-.34-.35V5.31a12.76 12.76 0 0 0-.06-1.86 1 1 0 0 0-1.13-.85 1.29 1.29 0 0 0-1.16.81 5.94 5.94 0 0 0-.18 1.9v5.26a.37.37 0 0 1-.37.35h-1.93a.35.35 0 0 1-.35-.35V5.31c0-1.11.18-2.73-1.19-2.73-1.37 0-1.34 1.58-1.34 2.73v5.26a.36.36 0 0 1-.37.35zm35.73-8.78c-1.42 0-1.51 1.94-1.51 3.15s0 3.8 1.49 3.8S50.2 7 50.2 5.73a9.23 9.23 0 0 0-.28-2.63 1.21 1.21 0 0 0-1.27-1v.04zm0-2c2.87 0 4.42 2.47 4.42 5.6 0 3.13-1.71 5.42-4.42 5.42s-4.36-2.49-4.36-5.56c0-3.07 1.55-5.49 4.34-5.49l.02.03zm8.12 10.78h-1.92a.35.35 0 0 1-.35-.35V.65a.36.36 0 0 1 .37-.33h1.79A.37.37 0 0 1 57 .6v1.52a2.63 2.63 0 0 1 2.64-2 2.52 2.52 0 0 1 2.25 1.17 6.37 6.37 0 0 1 .5 3.09v6.24a.35.35 0 0 1-.37.31h-1.89a.36.36 0 0 1-.35-.31V5.23c0-1.09.13-2.68-1.2-2.68a1.27 1.27 0 0 0-1.12.8 4.41 4.41 0 0 0-.31 1.88v5.34a.37.37 0 0 1-.38.35zM33 10.9a.39.39 0 0 1-.45 0 4.79 4.79 0 0 1-1.11-1.28 3.83 3.83 0 0 1-3.19 1.4 2.74 2.74 0 0 1-2.89-3 3.28 3.28 0 0 1 2.06-3.16A13.6 13.6 0 0 1 31 4.22V4a2.49 2.49 0 0 0-.24-1.4 1.27 1.27 0 0 0-1.08-.5 1.47 1.47 0 0 0-1.56 1.16.4.4 0 0 1-.33.35l-1.88-.2a.34.34 0 0 1-.25-.41c.42-2.27 2.42-3 4.24-3h.1a4.32 4.32 0 0 1 2.85 1c.94.88.85 2.05.85 3.32v3a2.63 2.63 0 0 0 .73 1.8.36.36 0 0 1 0 .51c-.39.33-1.1.94-1.48 1.28l.05-.01zm-2-4.71a3.8 3.8 0 0 1-.37 2.05 1.55 1.55 0 0 1-1.33.87c-.74 0-1.18-.56-1.18-1.4 0-1.64 1.48-1.94 2.88-1.94v.42zM7.64 10.9a.39.39 0 0 1-.45 0 4.62 4.62 0 0 1-1.11-1.24 3.83 3.83 0 0 1-3.19 1.4A2.74 2.74 0 0 1 0 8.05a3.28 3.28 0 0 1 2.06-3.16 13.53 13.53 0 0 1 3.63-.67V4a2.48 2.48 0 0 0-.23-1.4 1.29 1.29 0 0 0-1.09-.5 1.47 1.47 0 0 0-1.55 1.13.4.4 0 0 1-.33.35l-1.88-.2A.35.35 0 0 1 .32 3C.75.73 2.75 0 4.57 0h.14a4.33 4.33 0 0 1 2.85 1c.94.88.85 2.05.85 3.32v3a2.67 2.67 0 0 0 .72 1.8.35.35 0 0 1 0 .51c-.4.33-1.1.94-1.48 1.28l-.01-.01zM5.69 6.19a3.79 3.79 0 0 1-.36 2.05A1.55 1.55 0 0 1 4 9.11c-.74 0-1.17-.56-1.17-1.4 0-1.64 1.48-1.94 2.87-1.94v.42h-.01zm83.16 8.29v-.73c0-.21.1-.35.32-.34.457.07.923.07 1.38 0a1.6 1.6 0 0 0 1.13-1c.32-.73.53-1.31.66-1.7L88.32.8c-.07-.17-.09-.49.25-.49H90a.44.44 0 0 1 .43.34l2.92 8.09L96.11.65a.44.44 0 0 1 .44-.34h1.32c.34 0 .32.32.25.49l-4 10.27c-.51 1.36-1.2 3.54-2.75 3.92a4.12 4.12 0 0 1-2.33-.11.48.48 0 0 1-.2-.4h.01zM87 10.32a.34.34 0 0 1-.34.33h-1a.38.38 0 0 1-.39-.33l-.1-.68a5.56 5.56 0 0 1-1.62 1 4.09 4.09 0 0 1-3.65-.17 2.91 2.91 0 0 1-1.26-2.51 3.08 3.08 0 0 1 .78-2.14 4 4 0 0 1 3-1.16 9.36 9.36 0 0 1 2.65.34V3.61c0-1.38-.58-2-2.11-2a10.26 10.26 0 0 0-3.32.57.3.3 0 0 1-.31-.33v-.76a.5.5 0 0 1 .33-.42A10.07 10.07 0 0 1 83.15 0C84.9 0 87 .39 87 3.08v7.24zm-1.91-2v-2A10 10 0 0 0 82.88 6a2.54 2.54 0 0 0-1.79.57 1.69 1.69 0 0 0-.42 1.16 1.54 1.54 0 0 0 .63 1.36 2.55 2.55 0 0 0 2 .1 4.59 4.59 0 0 0 1.72-.89l.07.02zM72.36 1.66c2.2 0 2.8 1.73 2.8 3.71a4.47 4.47 0 0 1-.92 3.21 2.52 2.52 0 0 1-2 .65 4.71 4.71 0 0 1-2.55-1V2.6a4.53 4.53 0 0 1 2.64-.94h.03zm-3 13.18h-1.3a.34.34 0 0 1-.34-.34V.67a.34.34 0 0 1 .34-.34h1a.39.39 0 0 1 .39.34l.11.72A5.22 5.22 0 0 1 72.91 0c3.27 0 4.34 2.69 4.34 5.49 0 3-1.64 5.41-4.42 5.41a4.67 4.67 0 0 1-3.11-1.19v4.79a.34.34 0 0 1-.34.34h-.02z"/></g></svg>