<svg width="49" height="49" viewBox="0 0 49 49" xmlns="http://www.w3.org/2000/svg"><title>american express_b&amp;w</title><g fill="none" fill-rule="evenodd"><path fill="#333" d="M0 0h48.36v48.36H0V0z"/><path d="M9.39 33.7v-7.6h8l.86 1.13.89-1.13h29.22v7.07a3.41 3.41 0 0 1-1.65.53H30.56l-1-1.2v1.2H26.4v-2.05a2.67 2.67 0 0 1-1.38.29h-1.08v1.76h-4.83l-.86-1.15-.87 1.15H9.39zM0 20.38l1.81-4.22H5l1 2.36v-2.36h3.87l.62 1.71.59-1.71h17.49V17a3.77 3.77 0 0 1 2.43-.84h5.68l1 2.33v-2.33H41l.9 1.34v-1.34h3.29v7.59h-3.34L41 22.4v1.35h-4.8l-.48-1.2h-1.29l-.43 1.2h-3.3a3.21 3.21 0 0 1-2.13-.84v.84h-4.9l-1-1.2v1.2H4.48L4 22.55H2.72l-.48 1.2H0v-3.37z" fill="#FFF"/><path d="M2.45 17.09L0 22.78h1.6l.45-1.14h2.62l.45 1.14h1.63l-2.44-5.69H2.45zm.91 1.33l.8 2h-1.6l.8-2zm3.56 4.36v-5.69l2.26.01 1.32 3.67 1.28-3.68h2.25v5.69H12.6v-4.19l-1.5 4.19H9.85l-1.51-4.19v4.19H6.92zm8.08 0v-5.69h4.64v1.27h-3.21v.98h3.13v1.19h-3.13v1.01h3.21v1.24H15zm5.46-5.69v5.69h1.42v-2h.6l1.7 2h1.74l-1.87-2.1a1.72 1.72 0 0 0 1.56-1.74 1.84 1.84 0 0 0-2-1.85h-3.15zm1.42 1.27h1.62a.66.66 0 0 1 .68.6.65.65 0 0 1-.66.6h-1.64v-1.2zm5.76 4.42h-1.45v-5.69h1.45v5.69zm3.44 0h-.31c-1.52 0-2.44-1.2-2.44-2.82a2.6 2.6 0 0 1 2.82-2.87h1.57v1.35H31.1A1.36 1.36 0 0 0 29.77 20a1.39 1.39 0 0 0 1.53 1.56h.38l-.6 1.25v-.03zm3.09-5.69l-2.44 5.69h1.59l.45-1.14h2.62l.45 1.14h1.63L36 17.09h-1.83zm.91 1.33l.8 2h-1.61l.81-2zm3.55 4.36v-5.69h1.81l2.31 3.57v-3.57h1.42v5.69h-1.75l-2.37-3.67v3.67h-1.42zm-28.27 9.94v-5.68H15v1.27h-3.2v.97h3.12v1.2H11.8v1.01H15v1.23h-4.64zm22.72 0v-5.68h4.64v1.27h-3.2v.97h3.11v1.2h-3.11v1.01h3.2v1.23h-4.64zm-17.9 0l2.25-2.8-2.31-2.88h1.79l1.38 1.78 1.38-1.78h1.72l-2.28 2.84 2.26 2.85h-1.79l-1.33-1.76-1.31 1.76-1.76-.01zM21.54 27v5.69H23v-1.8h1.5a2 2 0 0 0 2.22-2 1.87 1.87 0 0 0-2-1.91l-3.18.02zM23 28.33h1.58a.64.64 0 0 1 .7.65.66.66 0 0 1-.71.66H23v-1.31zM27.34 27v5.68h1.42v-2h.6l1.7 2h1.74l-1.87-2.09a1.73 1.73 0 0 0 1.56-1.75 1.84 1.84 0 0 0-2-1.84h-3.15zm1.42 1.27h1.62a.66.66 0 0 1 .68.6.64.64 0 0 1-.65.6h-1.65v-1.2zm9.62 4.45v-1.23h2.84c.42 0 .61-.23.61-.48 0-.25-.19-.48-.61-.48h-1.28a1.59 1.59 0 0 1-1.74-1.7c0-.91.57-1.79 2.23-1.79h2.77l-.6 1.28h-2.4c-.45 0-.59.24-.59.47a.49.49 0 0 0 .52.49h1.35a1.56 1.56 0 0 1 1.78 1.64 1.7 1.7 0 0 1-1.85 1.8h-3.03zm5.22 0v-1.23h2.72c.42 0 .6-.23.6-.48 0-.25-.18-.48-.6-.48h-1.17a1.59 1.59 0 0 1-1.74-1.7c0-.91.57-1.79 2.23-1.79h2.72l-.6 1.28h-2.34c-.46 0-.6.24-.6.47a.5.5 0 0 0 .53.49h1.22a1.56 1.56 0 0 1 1.79 1.64 1.7 1.7 0 0 1-1.86 1.8h-2.9z" fill="#333"/></g></svg>