<svg width="48" height="31" viewBox="0 0 48 31" xmlns="http://www.w3.org/2000/svg"><title>discover_b&amp;w</title><defs><radialGradient fx="50%" fy="50%" id="a"><stop stop-color="#FFF" offset="0%"/><stop stop-color="#333" offset="100%"/></radialGradient></defs><g fill="none" fill-rule="evenodd"><path d="M4.49 13.32s2.77.31 2.77-2.14C7.26 8.68 4.49 9 4.49 9v4.32zm-1.24-5.5h2.16a3.35 3.35 0 0 1 3.2 3.27v.05a3.35 3.35 0 0 1-3.2 3.28H3.25v-6.6zm5.92 0h1.32v6.61H9.17z" fill="#333" fill-rule="nonzero"/><path d="M14.54 9.35a1.55 1.55 0 0 0-1-.5.84.84 0 0 0-.92.67c0 .28 0 .44.82.79.82.35 2.06.59 2.06 2.06a2.15 2.15 0 0 1-2.19 2.22 2.83 2.83 0 0 1-2.37-1.25l.83-.82c.31.501.842.825 1.43.87a.85.85 0 0 0 1-.92c0-.34-.2-.67-.76-.87-.56-.2-2.1-.42-2.1-1.9a2 2 0 0 1 2.11-2 3.19 3.19 0 0 1 1.86.78l-.77.87zm6.46.27a2.24 2.24 0 1 0 0 3v1.56a3.48 3.48 0 1 1 0-6.16v1.6z" fill="#333"/><path fill="#333" fill-rule="nonzero" d="M28.16 7.82h1.42l1.81 4.33 1.72-4.33h1.42l-2.78 6.78h-.82zm12.66 1.1v1.93h.71a.92.92 0 0 0 .89-.92v-.08a.92.92 0 0 0-.89-.93h-.71zm-1.29-1.1h2.16a1.93 1.93 0 0 1 2.05 1.95 1.91 1.91 0 0 1-1.41 1.9l2 2.76h-1.6L41 11.79h-.14v2.64h-1.33V7.82zm-.95 2.61v1.16h-2.25v1.67h2.35v1.17h-3.66V7.82h3.66v1.17h-2.35v1.44z"/><path d="M47.54 30.41H0V0h47.54v30.41zM.42 30h46.71V.42H.42V30z" fill="#333" fill-rule="nonzero"/><path d="M10.42 30S24 27.62 32.86 24a65.53 65.53 0 0 0 14.3-7.24V30H10.42zm4.18-13.88L16 17.5l.13.13.12.15V16.2h.34v2.37l-1.48-1.42a1.79 1.79 0 0 1-.22-.25v1.58h-.29v-2.36zm3.18.08h1.27v.32h-.91v.57h.91v.32h-.91v.74h.91v.33h-1.27zm2.94 2.29h-.37v-1.98h-.5v-.32h1.36v.32h-.49zm1.65-2.29l.43 1.15.06.18.06.18a2.25 2.25 0 0 1 .08-.24v-.14l.46-1.21.54 1.23.12.36a.9.9 0 0 1 0-.16l.06-.19.43-1.16H25l-.88 2.37-.52-1.3a1.52 1.52 0 0 1-.1-.27c0 .12-.07.23-.11.33l-.51 1.29L22 16.2h.37zm5.33 1.99a1.17 1.17 0 0 1-.86.35 1.23 1.23 0 0 1-.47-.09 1 1 0 0 1-.39-.26 1.1 1.1 0 0 1-.36-.84 1.13 1.13 0 0 1 .38-.85 1.18 1.18 0 0 1 .86-.35 1.21 1.21 0 0 1 .86.35c.232.22.36.53.35.85a1.11 1.11 0 0 1-.37.84zm-.28-1.45a.78.78 0 0 0-.58-.25.73.73 0 0 0-.53.19 1 1 0 0 0-.24.34.88.88 0 0 0-.06.33.85.85 0 0 0 .24.6.78.78 0 0 0 .59.25.79.79 0 0 0 .59-.25.85.85 0 0 0 .24-.6.82.82 0 0 0-.25-.61zm1.85 1.74h-.35V16.2h.52c.11-.012.22-.012.33 0a.51.51 0 0 1 .39.31.68.68 0 0 1 .06.29.54.54 0 0 1-.52.61l.78 1h-.41l-.76-1-.04 1.07zm.09-1.31a.83.83 0 0 0 .37-.05c.08 0 .11-.13.11-.26a.29.29 0 0 0-.11-.27.8.8 0 0 0-.37-.07h-.07v.65h.07zm1.91-.97h.37v.95l.81-.95h.46l-.9 1.02 1 1.26h-.48l-.89-1.16v1.16h-.37z" fill="#333"/><circle fill="url(#a)" fill-rule="nonzero" cx="24.96" cy="11.16" r="3.43"/></g></svg>