<svg width="48" height="38" viewBox="0 0 48 38" xmlns="http://www.w3.org/2000/svg"><title>mastercard_color</title><g fill="none"><path d="M8.22 33.47a1.51 1.51 0 0 0-.49-.33 1.8 1.8 0 0 0-.62-.14h-.37a1.82 1.82 0 0 0-.38.11 1.26 1.26 0 0 0-.64.56 1.37 1.37 0 0 0-.53-.51 1.55 1.55 0 0 0-.78-.16c-.1-.01-.2-.01-.3 0a.85.85 0 0 0-.31.09.92.92 0 0 0-.3.18 1.14 1.14 0 0 0-.25.28v-.48h-.83V37h.83v-2.12c-.001-.15.026-.3.08-.44a1.33 1.33 0 0 1 .21-.33 1 1 0 0 1 .32-.2 1.12 1.12 0 0 1 .38-.07.82.82 0 0 1 .65.27c.164.218.246.487.23.76v2.19H6v-2.18a1.19 1.19 0 0 1 0-.44 1.1 1.1 0 0 1 .21-.33 1 1 0 0 1 .32-.2 1.12 1.12 0 0 1 .38-.07.82.82 0 0 1 .65.27c.164.218.246.487.23.76v2.19h.83v-2.47c.006-.2-.02-.4-.08-.59a1.39 1.39 0 0 0-.32-.53zm4.39.14a1.5 1.5 0 0 0-1.23-.61 1.92 1.92 0 0 0-1.4.58 2.06 2.06 0 0 0-.41.65 2.27 2.27 0 0 0-.15.83 2.23 2.23 0 0 0 .15.83 2.1 2.1 0 0 0 .41.66c.18.18.394.323.63.42a1.8 1.8 0 0 0 .77.16 1.5 1.5 0 0 0 1.23-.58v.48h.86v-3.9h-.86v.48zm0 2a1.22 1.22 0 0 1-.24.4 1.12 1.12 0 0 1-.38.26 1.06 1.06 0 0 1-.48.1 1.15 1.15 0 0 1-.5-.1 1.26 1.26 0 0 1-.37-.27 1.13 1.13 0 0 1-.23-.4 1.29 1.29 0 0 1-.08-.49 1.27 1.27 0 0 1 .08-.48 1.05 1.05 0 0 1 .23-.4 1 1 0 0 1 .37-.27 1.15 1.15 0 0 1 .5-.1 1.21 1.21 0 0 1 .48.09 1.15 1.15 0 0 1 .62.66c.057.16.084.33.08.5a1.35 1.35 0 0 1-.11.48l.03.02zm4.79-.52a2.14 2.14 0 0 0-1-.38l-.4-.06h-.25a.65.65 0 0 1-.21-.07.47.47 0 0 1-.13-.11.26.26 0 0 1-.05-.17.38.38 0 0 1 .19-.34 1 1 0 0 1 .55-.13c.12-.01.24-.01.36 0l.34.08.29.11.22.11.37-.66a2.61 2.61 0 0 0-.72-.31 3.45 3.45 0 0 0-.87-.11 2.38 2.38 0 0 0-.68.09 1.52 1.52 0 0 0-.51.25 1 1 0 0 0-.32.4 1.1 1.1 0 0 0-.11.52 1 1 0 0 0 .33.77 2 2 0 0 0 1 .38l.41.05c.178.021.351.076.51.16a.33.33 0 0 1 .17.28.4.4 0 0 1-.23.35 1.32 1.32 0 0 1-.67.13 2.81 2.81 0 0 1-.43 0l-.35-.09a1.82 1.82 0 0 1-.28-.13l-.24-.21-.4.64a2 2 0 0 0 .45.26c.15.059.304.11.46.15.138.034.279.061.42.08H16a2.86 2.86 0 0 0 .75-.09c.2-.052.39-.14.56-.26.145-.11.265-.25.35-.41.08-.161.122-.34.12-.52a.93.93 0 0 0-.38-.76zm8.02-1.49a1.77 1.77 0 0 0-1.34-.57 2 2 0 0 0-.79.15 1.79 1.79 0 0 0-1.02 1.07 2.32 2.32 0 0 0-.14.84c-.002.29.045.577.14.85A1.88 1.88 0 0 0 23.32 37c.258.101.533.152.81.15A2.65 2.65 0 0 0 25 37a2 2 0 0 0 .77-.43l-.45-.57a1.62 1.62 0 0 1-.54.31 1.8 1.8 0 0 1-.59.11 1.4 1.4 0 0 1-.41-.06 1.11 1.11 0 0 1-.34-.18.91.91 0 0 1-.27-.31 1.32 1.32 0 0 1-.15-.45h2.9v-.32a2.47 2.47 0 0 0-.14-.84 2 2 0 0 0-.36-.66zM23 34.76a1.27 1.27 0 0 1 .12-.39 1 1 0 0 1 .21-.31.83.83 0 0 1 .31-.2 1 1 0 0 1 .4-.07.94.94 0 0 1 .67.25c.184.199.3.451.33.72H23zm13.79-1.15a1.39 1.39 0 0 0-.51-.42 1.47 1.47 0 0 0-.72-.16 2 2 0 0 0-.77.15 1.82 1.82 0 0 0-.62.43 1.92 1.92 0 0 0-.42.65 2.27 2.27 0 0 0-.15.83 2.23 2.23 0 0 0 .15.83 2 2 0 0 0 .42.66 2 2 0 0 0 1.39.58c.25.009.497-.046.72-.16a1.39 1.39 0 0 0 .51-.42v.48h.86v-3.93h-.86v.48zm0 2a1.22 1.22 0 0 1-.24.4 1.12 1.12 0 0 1-.38.26 1.06 1.06 0 0 1-.48.1 1.15 1.15 0 0 1-.5-.1 1.26 1.26 0 0 1-.37-.27 1.13 1.13 0 0 1-.23-.4 1.29 1.29 0 0 1-.08-.49 1.27 1.27 0 0 1 .08-.48 1.05 1.05 0 0 1 .23-.4 1 1 0 0 1 .37-.27 1.15 1.15 0 0 1 .5-.1 1.21 1.21 0 0 1 .48.09 1.15 1.15 0 0 1 .62.66c.057.16.084.33.08.5a1.35 1.35 0 0 1-.11.48l.03.02zm-15.72.66c-.13.05-.27.078-.41.08a.67.67 0 0 1-.24 0 .53.53 0 0 1-.33-.36 1 1 0 0 1-.05-.33v-1.75h1.38v-.78H20v-1.19h-.86v1.19h-.74v.78h.78v1.72c-.033.42.1.837.37 1.16a1.45 1.45 0 0 0 1 .37 1.78 1.78 0 0 0 .67-.12l.37-.17-.3-.72a1.23 1.23 0 0 1-.22.12zM28.8 33a1.51 1.51 0 0 0-.65.13 1.43 1.43 0 0 0-.49.49v-.52h-.77v3.93h.78V34.9a1.25 1.25 0 0 1 .07-.45 1.06 1.06 0 0 1 .19-.33.81.81 0 0 1 .3-.21 1.11 1.11 0 0 1 .37-.07c.113-.01.227-.01.34 0h.17l.26-.82h-.21a2 2 0 0 0-.36-.02zm11.9 0a1.51 1.51 0 0 0-.65.13 1.43 1.43 0 0 0-.49.49v-.52h-.77v3.93h.78V34.9a1.25 1.25 0 0 1 .07-.45 1.06 1.06 0 0 1 .19-.33.9.9 0 0 1 .3-.21 1.12 1.12 0 0 1 .38-.07c.11-.009.22-.009.33 0h.17l.26-.82h-.21a2 2 0 0 0-.36-.02zm4-1.46v2.07a1.5 1.5 0 0 0-1.23-.61 1.92 1.92 0 0 0-1.4.58 2.06 2.06 0 0 0-.41.65 2.27 2.27 0 0 0-.15.83 2.23 2.23 0 0 0 .15.83 2.1 2.1 0 0 0 .41.66c.18.18.394.323.63.42a1.8 1.8 0 0 0 .77.16 1.5 1.5 0 0 0 1.23-.58v.48h.86v-5.49h-.86zm0 4.05a1.22 1.22 0 0 1-.24.4 1.12 1.12 0 0 1-.38.26 1.06 1.06 0 0 1-.48.1 1.15 1.15 0 0 1-.5-.1 1.26 1.26 0 0 1-.4-.25 1.13 1.13 0 0 1-.23-.4 1.29 1.29 0 0 1-.08-.49 1.27 1.27 0 0 1 .08-.48 1.05 1.05 0 0 1 .23-.4 1 1 0 0 1 .37-.27 1.15 1.15 0 0 1 .5-.1 1.21 1.21 0 0 1 .48.09 1.15 1.15 0 0 1 .62.66c.057.16.084.33.08.5a1.35 1.35 0 0 1-.08.48h.03zm-13.85-1.4c.111-.112.244-.2.39-.26a1.3 1.3 0 0 1 .49-.09c.18-.002.36.029.53.09.155.055.298.14.42.25l.41-.69a2.21 2.21 0 0 0-.52-.3 2.13 2.13 0 0 0-.84-.16 2.06 2.06 0 0 0-.84.16 2 2 0 0 0-1.27 1.9 2 2 0 0 0 .16.82 2 2 0 0 0 .44.66c.194.185.421.33.67.43.266.112.552.166.84.16.288.004.574-.05.84-.16a2.21 2.21 0 0 0 .52-.3l-.41-.7a1.27 1.27 0 0 1-.42.25 1.51 1.51 0 0 1-.53.09 1.3 1.3 0 0 1-.49-.09 1.16 1.16 0 0 1-.65-.66 1.36 1.36 0 0 1-.09-.51 1.44 1.44 0 0 1 .09-.51 1.16 1.16 0 0 1 .26-.38zm16.51 2.29a.41.41 0 0 1 .16 0 .38.38 0 0 1 .13.09.34.34 0 0 1 .09.12.45.45 0 0 1 0 .16.41.41 0 0 1 0 .16.34.34 0 0 1-.09.12.38.38 0 0 1-.13.09.44.44 0 0 1-.32 0 .3.3 0 0 1-.13-.09A.34.34 0 0 1 47 37a.41.41 0 0 1 0-.16.45.45 0 0 1 0-.16.34.34 0 0 1 .09-.12.3.3 0 0 1 .13-.09.41.41 0 0 1 .14.01zm0 .69h.11l.09-.06a.21.21 0 0 0 .06-.1.22.22 0 0 0 0-.22.15.15 0 0 0-.06-.09.22.22 0 0 0-.09-.07h-.22l-.1.07a.35.35 0 0 0-.06.09.31.31 0 0 0 0 .22l.06.1.1.06h.11zm0-.47a.12.12 0 0 1 .11 0 .1.1 0 0 1 0 .15h-.07l.11.13h-.12l-.1-.13v.13h-.1v-.28h.17zm-.07.09v.06h.11-.11v-.06z" fill="#1D1D1B"/><path d="M18.35 14.79A14.76 14.76 0 0 1 24 3.19C17.94-1.617 9.2-.947 3.945 4.728c-5.257 5.674-5.257 14.44 0 20.114C9.2 30.517 17.94 31.187 24 26.38a14.73 14.73 0 0 1-5.65-11.59z" fill="#E20D17"/><path d="M23.96 26.39c.349 0 5.62-4.022 5.62-11.6 0-7.578-2.516-11.6-5.62-11.6-.77 0-5.62 4.022-5.62 11.6 0 7.578 5.271 11.6 5.62 11.6z" fill="#EA610A"/><path d="M33.13 0A14.76 14.76 0 0 0 24 3.19a14.77 14.77 0 0 1 0 23.19A14.79 14.79 0 1 0 33.13 0z" fill="#F59E00"/></g></svg>