<svg width="96" height="24" viewBox="0 0 96 24" xmlns="http://www.w3.org/2000/svg"><title>paypal_b&amp;w</title><g fill="#333"><path d="M73.52 5.18h-5.25a.73.73 0 0 0-.72.62l-2.12 13.46a.43.43 0 0 0 .43.5h2.69a.51.51 0 0 0 .51-.43l.6-3.82a.73.73 0 0 1 .72-.61H72c3.46 0 5.46-1.67 6-5a4.06 4.06 0 0 0-.67-3.39 4.87 4.87 0 0 0-3.81-1.33zm.61 4.92C73.84 12 72.4 12 71 12h-.79l.55-3.52a.45.45 0 0 1 .44-.37h.36c1 0 1.84 0 2.3.54.297.421.395.95.27 1.45z" opacity=".5"/><path d="M36.08 5.18h-5.25a.73.73 0 0 0-.72.62L28 19.26a.43.43 0 0 0 .43.5h2.51a.73.73 0 0 0 .72-.61l.57-3.64a.73.73 0 0 1 .72-.61h1.65c3.46 0 5.45-1.67 6-5a4.06 4.06 0 0 0-.67-3.39 4.87 4.87 0 0 0-3.85-1.33zm.61 4.92C36.4 12 35 12 33.57 12h-.79l.55-3.52a.45.45 0 0 1 .43-.37h.37c.94 0 1.84 0 2.3.54.293.423.388.952.26 1.45zm15.08-.1h-2.51a.44.44 0 0 0-.44.37l-.11.7-.17-.26a3.59 3.59 0 0 0-3-1A5.77 5.77 0 0 0 40 14.86a4.77 4.77 0 0 0 .93 3.86A4 4 0 0 0 44.06 20a4.82 4.82 0 0 0 3.48-1.43l-.11.7a.43.43 0 0 0 .43.5h2.26a.72.72 0 0 0 .72-.61l1.36-8.61a.43.43 0 0 0-.43-.55zm-3.5 4.89a2.82 2.82 0 0 1-2.84 2.4 2.15 2.15 0 0 1-1.69-.68 2.14 2.14 0 0 1-.39-1.77 2.8 2.8 0 0 1 2.82-2.41 2.1 2.1 0 0 1 1.67.68c.413.51.572 1.18.43 1.82v-.04z"/><path d="M89.21 10H86.7a.42.42 0 0 0-.43.37l-.12.7-.15-.22a3.59 3.59 0 0 0-3-1 5.77 5.77 0 0 0-5.61 5.06 4.77 4.77 0 0 0 .93 3.86A4 4 0 0 0 81.5 20a4.82 4.82 0 0 0 3.5-1.44l-.11.7a.43.43 0 0 0 .43.5h2.26a.72.72 0 0 0 .72-.61l1.36-8.61a.43.43 0 0 0-.45-.54zm-3.5 4.89a2.8 2.8 0 0 1-2.84 2.4 2.15 2.15 0 0 1-1.69-.68 2.14 2.14 0 0 1-.39-1.77 2.81 2.81 0 0 1 2.82-2.41 2.1 2.1 0 0 1 1.67.68c.413.51.572 1.18.43 1.82v-.04z" opacity=".5"/><path d="M65.16 10h-2.53a.72.72 0 0 0-.6.32l-3.49 5.13-1.47-4.93a.74.74 0 0 0-.7-.52h-2.49a.43.43 0 0 0-.41.57l2.78 8.17-2.61 3.69a.43.43 0 0 0 .35.69h2.53a.72.72 0 0 0 .6-.31l8.4-12.13a.43.43 0 0 0-.36-.68z"/><path d="M92.17 5.55L90 19.26a.43.43 0 0 0 .43.5h2.17a.73.73 0 0 0 .72-.61l2.14-13.46a.43.43 0 0 0-.46-.51h-2.39a.45.45 0 0 0-.44.37zm-74.48.33a4.58 4.58 0 0 0-1-4.13C15.64.52 13.7 0 11.22 0H4a1 1 0 0 0-1 .87l-3 19a.62.62 0 0 0 .61.71h4.45l-.3 1.95a.53.53 0 0 0 .53.62H9a.9.9 0 0 0 .89-.76v-.19l.71-4.47v-.25a.9.9 0 0 1 .89-.76h.56c3.63 0 6.48-1.48 7.31-5.74a4.92 4.92 0 0 0-.75-4.31 3.74 3.74 0 0 0-1-.8" opacity=".5"/><path d="M17.69 5.88a4.58 4.58 0 0 0-1-4.13C15.64.52 13.7 0 11.22 0H4a1 1 0 0 0-1 .87l-3 19a.62.62 0 0 0 .61.71h4.45l1.12-7.08v.23a1 1 0 0 1 1-.87h2.09c4.15 0 7.4-1.69 8.35-6.56 0-.15.05-.29.07-.43" opacity=".5"/><path d="M7.38 5.91a.9.9 0 0 1 .89-.76h5.64a12 12 0 0 1 1.86.13l.48.09.45.12.21.07c.268.087.529.194.78.32a4.58 4.58 0 0 0-1-4.13C15.64.52 13.7 0 11.22 0H4a1 1 0 0 0-1 .87l-3 19a.62.62 0 0 0 .61.71h4.45l1.12-7.08 1.2-7.59z"/></g></svg>