<svg width="48" height="16" viewBox="0 0 48 16" xmlns="http://www.w3.org/2000/svg"><title>visa_b&amp;w</title><g fill="#333"><path d="M13.77.27L10 10.39l-.41-2.05a9.3 9.3 0 0 0-5-5.06l3.15 11.81h4l6-14.82h-3.97m3.21 14.83L19.38.26h3.84l-2.4 14.84h-3.84M34.72.62A9.68 9.68 0 0 0 31.29 0c-3.79 0-6.46 2-6.48 4.9 0 2.13 1.9 3.32 3.35 4 1.45.68 2 1.2 2 1.85 0 1-1.19 1.45-2.29 1.45a7.75 7.75 0 0 1-3.61-.78l-.49-.24-.54 3.32a11.26 11.26 0 0 0 4.27.79c4 0 6.65-2 6.68-5.07 0-1.69-1-3-3.22-4-1.34-.69-2.17-1.14-2.16-1.84.01-.7.69-1.28 2.2-1.28a6.79 6.79 0 0 1 2.87.57l.34.17.51-3.22m9.84-.35h-3a1.91 1.91 0 0 0-2 1.23l-5.67 13.61h4l.8-2.23h4.91c.12.51.47 2.22.47 2.22h3.56L44.56.27zm-4.73 9.57l1.52-4.15s.32-.86.51-1.41l.26 1.28s.74 3.54.89 4.28h-3.18z"/><path d="M6.53.26H.35L.3.57C4.55 1.64 8 4 9.62 8.34L8.27 1.51A1.6 1.6 0 0 0 6.53.26z"/></g></svg>