<?xml version="1.0" encoding="UTF-8"?>
<svg width="99px" height="19px" viewBox="0 0 99 19" version="1.1" xmlns="http://www.w3.org/2000/svg" xmlns:xlink="http://www.w3.org/1999/xlink">
    <!-- Generator: Sketch 51.1 (57501) - http://www.bohemiancoding.com/sketch -->
    <title>amazonpay_b&amp;w</title>
    <desc>Created with Sketch.</desc>
    <defs></defs>
    <g id="Page-1" stroke="none" stroke-width="1" fill="none" fill-rule="evenodd">
        <g id="Fill-in-the-form" transform="translate(-567.000000, -977.000000)" fill="#333333">
            <g id="Amazonpay" transform="translate(446.000000, 958.000000)">
                <g id="amazonpay_b&amp;w" transform="translate(120.000000, 18.000000)">
                    <path d="M39.73,15.73 C35.7759034,18.4180538 31.1012356,19.847296 26.32,19.83 C20.2683562,19.8638592 14.4225603,17.6346814 9.93,13.58 C9.59,13.27 9.93,12.85 10.3,13.09 C15.2940983,15.9445928 20.9476353,17.444159 26.7,17.44 C30.9980942,17.4207328 35.2498429,16.5506707 39.21,14.88 C39.82,14.62 40.33,15.29 39.73,15.73 Z" id="Shape"></path>
                    <path d="M41.24,14 C40.78,13.4 38.18,13.72 37.01,13.86 C36.65,13.86 36.6,13.59 36.92,13.36 C38.99,11.91 42.4,12.36 42.79,12.82 C43.18,13.28 42.69,16.72 40.79,18.35 C40.49,18.6 40.21,18.46 40.34,18.13 C40.78,17.04 41.76,14.59 41.34,14 L41.24,14 Z" id="Shape"></path>
                    <path d="M37.09,3.07 L37.09,1.65 C37.0870225,1.55452805 37.1243419,1.462207 37.1928281,1.39562321 C37.2613143,1.32903941 37.3546498,1.29433485 37.45,1.3 L43.8,1.3 C43.8971986,1.29729899 43.9913562,1.33403168 44.0610478,1.40183975 C44.1307394,1.46964781 44.1700375,1.56276393 44.17,1.66 L44.17,2.87 C44.082673,3.20046677 43.9181655,3.50549108 43.69,3.76 L40.4,8.46 C41.6481157,8.39394424 42.8911547,8.66326936 44,9.24 C44.2044228,9.3483932 44.3344214,9.55868495 44.34,9.79 L44.34,11.3 C44.34,11.51 44.11,11.75 43.87,11.62 C41.765038,10.5344965 39.264962,10.5344965 37.16,11.62 C36.94,11.73 36.71,11.5 36.71,11.29 L36.71,9.87 C36.6818363,9.5209334 36.7621631,9.17168648 36.94,8.87 L40.76,3.4 L37.46,3.4 C37.3619969,3.40565436 37.266124,3.36989178 37.1957658,3.30143516 C37.1254076,3.23297855 37.0870323,3.13812123 37.09,3.04 L37.09,3.07 Z" id="Shape"></path>
                    <path d="M13.92,11.92 L12,11.92 C11.8213246,11.9119481 11.6739885,11.7772407 11.65,11.6 L11.65,1.68 C11.6549368,1.48708975 11.8073053,1.33036784 12,1.32 L13.8,1.32 C13.9820111,1.32880498 14.130513,1.46882098 14.15,1.65 L14.15,3 C14.5001549,1.90071214 15.521292,1.1542854 16.675,1.1542854 C17.828708,1.1542854 18.8498451,1.90071214 19.2,3 C19.5637158,2.03715363 20.418323,1.34522149 21.4357749,1.18980622 C22.4532268,1.03439096 23.475428,1.43964158 24.11,2.25 C24.72,3.08 24.6,4.25 24.6,5.36 L24.6,11.62 C24.589232,11.820424 24.4206317,11.9757137 24.22,11.97 L22.34,11.97 C22.1506165,11.9645868 21.9999227,11.8094608 22,11.62 L22,6.31 C22.0252985,5.68936605 22.0052452,5.06771319 21.94,4.45 C21.8626029,3.90328367 21.3567395,3.52276695 20.81,3.6 C20.296552,3.61496863 19.8409135,3.93313 19.65,4.41 C19.4879829,5.02949154 19.4271985,5.6711046 19.47,6.31 L19.47,11.57 C19.4593633,11.7664955 19.296783,11.9202877 19.1,11.92 L17.17,11.92 C16.9767003,11.92 16.82,11.7632997 16.82,11.57 L16.82,6.31 C16.82,5.2 17,3.58 15.63,3.58 C14.26,3.58 14.29,5.16 14.29,6.31 L14.29,11.57 C14.2873844,11.6654902 14.2469236,11.7560258 14.1775269,11.8216713 C14.1081303,11.8873168 14.0154882,11.9226893 13.92,11.92 Z" id="Shape"></path>
                    <path d="M49.65,3.14 C48.23,3.14 48.14,5.08 48.14,6.29 C48.14,7.5 48.14,10.09 49.63,10.09 C51.12,10.09 51.2,8 51.2,6.73 C51.2334067,5.84443742 51.1391054,4.95867917 50.92,4.1 C50.8140548,3.49131566 50.2665533,3.06021211 49.65,3.1 L49.65,3.14 Z M49.65,1.14 C52.52,1.14 54.07,3.61 54.07,6.74 C54.07,9.87 52.36,12.16 49.65,12.16 C46.94,12.16 45.29,9.67 45.29,6.6 C45.29,3.53 46.84,1.11 49.63,1.11 L49.65,1.14 Z" id="Shape"></path>
                    <path d="M57.77,11.92 L55.85,11.92 C55.6567003,11.92 55.5,11.7632997 55.5,11.57 L55.5,1.65 C55.5158724,1.4590691 55.6785039,1.31401945 55.87,1.32 L57.66,1.32 C57.8225932,1.32836454 57.960613,1.44202792 58,1.6 L58,3.12 C58.2970014,1.91336311 59.3980166,1.07926063 60.64,1.12 C61.5458947,1.07670717 62.4051793,1.52353515 62.89,2.29 C63.3110804,3.26238064 63.4829355,4.32444525 63.39,5.38 L63.39,11.62 C63.3690464,11.8054558 63.2062595,11.9418449 63.02,11.93 L61.13,11.93 C60.9529755,11.9267938 60.8045617,11.7953416 60.78,11.62 L60.78,6.23 C60.78,5.14 60.91,3.55 59.58,3.55 C59.0820024,3.57371191 58.6439429,3.88661155 58.46,4.35 C58.2209048,4.94658958 58.1151023,5.58823074 58.15,6.23 L58.15,11.57 C58.139232,11.770424 57.9706317,11.9257137 57.77,11.92 Z" id="Shape"></path>
                    <path d="M34,11.9 C33.8651256,11.9952648 33.6848744,11.9952648 33.55,11.9 C33.1068824,11.5426783 32.7310039,11.1092328 32.44,10.62 C31.6627139,11.5712394 30.476319,12.0919143 29.25,12.02 C28.4502366,12.0676116 27.6697005,11.7627988 27.1138582,11.1857999 C26.558016,10.608801 26.2825597,9.81742798 26.36,9.02 C26.3117025,7.63768297 27.1357404,6.37362475 28.42,5.86 C29.5792997,5.4873554 30.7833959,5.27209797 32,5.22 L32,5 C32.0576252,4.51992946 31.9742316,4.03346652 31.76,3.6 C31.5052056,3.26452949 31.1006451,3.07723298 30.68,3.1 C29.9420534,3.03855634 29.2736063,3.53560671 29.12,4.26 C29.1002773,4.43716552 28.9657001,4.57989893 28.79,4.61 L26.91,4.41 C26.7279013,4.36560461 26.6160773,4.18221327 26.66,4 C27.08,1.73 29.08,1 30.9,1 L31,1 C32.0393763,0.979559272 33.0512666,1.33460848 33.85,2 C34.79,2.88 34.7,4.05 34.7,5.32 L34.7,8.32 C34.7047358,8.99116828 34.9658981,9.63513021 35.43,10.12 C35.4977836,10.1875487 35.5358839,10.2793055 35.5358839,10.375 C35.5358839,10.4706945 35.4977836,10.5624513 35.43,10.63 C35.04,10.96 34.33,11.57 33.95,11.91 L34,11.9 Z M32,7.19 C32.0700293,7.89445796 31.9418804,8.60447209 31.63,9.24 C31.380385,9.75251174 30.8695879,10.0866422 30.3,10.11 C29.56,10.11 29.12,9.55 29.12,8.71 C29.12,7.07 30.6,6.77 32,6.77 L32,7.19 Z" id="Shape"></path>
                    <path d="M8.64,11.9 C8.50512563,11.9952648 8.32487437,11.9952648 8.19,11.9 C7.74799008,11.5572655 7.3718892,11.1371168 7.08,10.66 C6.3027139,11.6112394 5.11631904,12.1319143 3.89,12.06 C3.08831721,12.1080187 2.30593069,11.8018977 1.74970474,11.2225758 C1.19347879,10.643254 0.919423667,9.8490673 1,9.05 C0.951702481,7.66768297 1.77574044,6.40362475 3.06,5.89 C4.23370955,5.50188155 5.45507354,5.27645073 6.69,5.22 L6.69,5 C6.75130355,4.5208929 6.67136518,4.03431152 6.46,3.6 C6.20092539,3.26431805 5.79342759,3.07739245 5.37,3.1 C4.64490176,3.04124431 3.98588286,3.52169035 3.82,4.23 C3.80027733,4.40716552 3.66570011,4.54989893 3.49,4.58 L1.61,4.38 C1.42841845,4.34934821 1.30164677,4.1832336 1.32,4 C1.75,1.73 3.75,1 5.57,1 L5.71,1 C6.74923214,0.980457806 7.76081771,1.33540011 8.56,2 C9.5,2.88 9.41,4.05 9.41,5.32 L9.41,8.32 C9.4160031,8.98901671 9.67295624,9.63139956 10.13,10.12 C10.2003592,10.1861485 10.2402606,10.2784286 10.2402606,10.375 C10.2402606,10.4715714 10.2003592,10.5638515 10.13,10.63 C9.73,10.96 9.03,11.57 8.65,11.91 L8.64,11.9 Z M6.69,7.19 C6.76366272,7.89353921 6.63895981,8.60365303 6.33,9.24 C6.08038499,9.75251174 5.56958787,10.0866422 5,10.11 C4.26,10.11 3.83,9.55 3.83,8.71 C3.83,7.07 5.31,6.77 6.7,6.77 L6.7,7.19 L6.69,7.19 Z" id="Shape"></path>
                    <path d="M89.85,15.48 L89.85,14.75 C89.85,14.54 89.95,14.4 90.17,14.41 C90.6273363,14.4800083 91.0926637,14.4800083 91.55,14.41 C92.0700668,14.2863629 92.4940339,13.9111709 92.68,13.41 C93,12.68 93.21,12.1 93.34,11.71 L89.32,1.8 C89.25,1.63 89.23,1.31 89.57,1.31 L91,1.31 C91.2050469,1.30929459 91.3833994,1.4503175 91.43,1.65 L94.35,9.74 L97.11,1.65 C97.1573927,1.44660808 97.3412306,1.30455146 97.55,1.31 L98.87,1.31 C99.21,1.31 99.19,1.63 99.12,1.8 L95.12,12.07 C94.61,13.43 93.92,15.61 92.37,15.99 C91.5989531,16.1785497 90.7898541,16.1403519 90.04,15.88 C89.9114985,15.7877647 89.8366873,15.6381424 89.84,15.48 L89.85,15.48 Z" id="Shape"></path>
                    <path d="M88,11.32 C87.99459,11.5038603 87.8439399,11.6500796 87.66,11.65 L86.66,11.65 C86.4644196,11.6568357 86.2956306,11.5140141 86.27,11.32 L86.17,10.64 C85.6915084,11.0639919 85.1434763,11.4022833 84.55,11.64 C83.3742402,12.1601691 82.0223205,12.097203 80.9,11.47 C80.0773332,10.9047888 79.6017451,9.9573871 79.64,8.96 C79.6169963,8.17320381 79.8961001,7.40745746 80.42,6.82 C81.2136382,6.03059815 82.3017409,5.60986509 83.42,5.66 C84.3150469,5.64603214 85.2074694,5.76053162 86.07,6 L86.07,4.61 C86.07,3.23 85.49,2.61 83.96,2.61 C82.8294878,2.61579061 81.7077051,2.80838583 80.64,3.18 C80.5532306,3.18333618 80.4692722,3.14891256 80.4098195,3.08562414 C80.3503667,3.02233572 80.3212525,2.93639176 80.33,2.85 L80.33,2.09 C80.349741,1.89805159 80.4781718,1.73459423 80.66,1.67 C81.7744154,1.24153773 82.9561465,1.01467245 84.15,1 C85.9,1 88,1.39 88,4.08 L88,11.32 Z M86.09,9.32 L86.09,7.32 C85.3675906,7.13115933 84.6263033,7.02382362 83.88,7 C83.2324154,6.95426558 82.5918986,7.15822903 82.09,7.57 C81.8088269,7.88992626 81.658823,8.30422285 81.67,8.73 C81.6303436,9.26183845 81.868677,9.77633582 82.3,10.09 C82.9251407,10.3946543 83.6475877,10.4307767 84.3,10.19 C84.9301057,10.0190371 85.516489,9.71561778 86.02,9.3 L86.09,9.32 Z" id="Shape"></path>
                    <path d="M73.36,2.66 C75.56,2.66 76.16,4.39 76.16,6.37 C76.2795164,7.51867059 75.9498209,8.66902109 75.24,9.58 C74.6999156,10.0777768 73.9695357,10.3151503 73.24,10.23 C72.3097046,10.1566403 71.4221673,9.80858639 70.69,9.23 L70.69,3.6 C71.448527,3.01550722 72.372766,2.6864221 73.33,2.66 L73.36,2.66 Z M70.36,15.84 L69.06,15.84 C68.8722232,15.84 68.72,15.6877768 68.72,15.5 L68.72,1.67 C68.72,1.48222319 68.8722232,1.33 69.06,1.33 L70.06,1.33 C70.2572856,1.32837275 70.4247128,1.47433491 70.45,1.67 L70.56,2.39 C71.4746336,1.54115257 72.663088,1.04803266 73.91,1 C77.18,1 78.25,3.69 78.25,6.49 C78.25,9.49 76.61,11.9 73.83,11.9 C72.6823274,11.8989571 71.5752248,11.4753391 70.72,10.71 L70.72,15.5 C70.72,15.6877768 70.5677768,15.84 70.38,15.84 L70.36,15.84 Z" id="Shape"></path>
                </g>
            </g>
        </g>
    </g>
</svg>