<?xml version="1.0" encoding="UTF-8"?>
<svg width="49px" height="49px" viewBox="0 0 49 49" version="1.1" xmlns="http://www.w3.org/2000/svg" xmlns:xlink="http://www.w3.org/1999/xlink">
    <!-- Generator: Sketch 51.1 (57501) - http://www.bohemiancoding.com/sketch -->
    <title>american express_b&amp;w</title>
    <desc>Created with Sketch.</desc>
    <defs></defs>
    <g id="Page-1" stroke="none" stroke-width="1" fill="none" fill-rule="evenodd">
        <g id="Fill-in-the-form" transform="translate(-462.000000, -824.000000)">
            <g id="american-express" transform="translate(446.000000, 808.000000)">
                <g id="american-express_b&amp;w" transform="translate(16.000000, 16.000000)">
                    <polygon id="Shape" fill="#333333" points="0 0 48.36 0 48.36 26.11 48.36 33.17 48.36 48.36 0 48.36 0 23.75 0 20.38 0 0"></polygon>
                    <path d="M9.39,33.7 L9.39,26.1 L17.39,26.1 L18.25,27.23 L19.14,26.1 L48.36,26.1 L48.36,33.17 C47.8648193,33.4858115 47.2964645,33.668374 46.71,33.7 L30.56,33.7 L29.56,32.5 L29.56,33.7 L26.4,33.7 L26.4,31.65 C25.9743,31.8685878 25.4976764,31.9687478 25.02,31.94 L23.94,31.94 L23.94,33.7 L19.11,33.7 L18.25,32.55 L17.38,33.7 L9.39,33.7 Z" id="Shape" fill="#FFFFFF"></path>
                    <path d="M0,20.38 L1.81,16.16 L5,16.16 L6,18.52 L6,16.16 L9.87,16.16 L10.49,17.87 L11.08,16.16 L28.57,16.16 L28.57,17 C29.256549,16.4439127 30.1165955,16.1466127 31,16.16 L36.68,16.16 L37.68,18.49 L37.68,16.16 L41,16.16 L41.9,17.5 L41.9,16.16 L45.19,16.16 L45.19,23.75 L41.85,23.75 L41,22.4 L41,23.75 L36.2,23.75 L35.72,22.55 L34.43,22.55 L34,23.75 L30.7,23.75 C29.9108831,23.7413449 29.1526066,23.4423063 28.57,22.91 L28.57,23.75 L23.67,23.75 L22.67,22.55 L22.67,23.75 L4.48,23.75 L4,22.55 L2.72,22.55 L2.24,23.75 L0,23.75 L0,20.38 Z" id="Shape" fill="#FFFFFF"></path>
                    <path d="M2.45,17.09 L0,22.78 L1.6,22.78 L2.05,21.64 L4.67,21.64 L5.12,22.78 L6.75,22.78 L4.31,17.09 L2.45,17.09 Z M3.36,18.42 L4.16,20.42 L2.56,20.42 L3.36,18.42 Z" id="Shape" fill="#333333"></path>
                    <polygon id="Shape" fill="#333333" points="6.92 22.78 6.92 17.09 9.18 17.1 10.5 20.77 11.78 17.09 14.03 17.09 14.03 22.78 12.6 22.78 12.6 18.59 11.1 22.78 9.85 22.78 8.34 18.59 8.34 22.78 6.92 22.78"></polygon>
                    <polygon id="Shape" fill="#333333" points="15 22.78 15 17.09 19.64 17.09 19.64 18.36 16.43 18.36 16.43 19.34 19.56 19.34 19.56 20.53 16.43 20.53 16.43 21.54 19.64 21.54 19.64 22.78 15 22.78"></polygon>
                    <path d="M20.46,17.09 L20.46,22.78 L21.88,22.78 L21.88,20.78 L22.48,20.78 L24.18,22.78 L25.92,22.78 L24.05,20.68 C24.9446749,20.5965273 25.6243339,19.8384461 25.61,18.94 C25.6147865,18.4212367 25.4003557,17.9245576 25.0195156,17.5722805 C24.6386755,17.2200034 24.1268184,17.0448661 23.61,17.09 L20.46,17.09 Z M21.88,18.36 L23.5,18.36 C23.8499381,18.3479585 24.1483757,18.6112858 24.18,18.96 C24.153579,19.3032096 23.8641672,19.5663112 23.52,19.56 L21.88,19.56 L21.88,18.36 Z" id="Shape" fill="#333333"></path>
                    <polygon id="Shape" fill="#333333" points="27.64 22.78 26.19 22.78 26.19 17.09 27.64 17.09 27.64 22.78"></polygon>
                    <path d="M31.08,22.78 L30.77,22.78 C29.25,22.78 28.33,21.58 28.33,19.96 C28.2458503,19.1850013 28.5138834,18.4131388 29.0602462,17.8570886 C29.6066091,17.3010385 30.3736422,17.0194826 31.15,17.09 L32.72,17.09 L32.72,18.44 L31.1,18.44 C30.7070581,18.4443923 30.3352233,18.6185357 30.0802743,18.9175736 C29.8253253,19.2166115 29.7121863,19.6113096 29.77,20 C29.7153261,20.4227599 29.8576602,20.8472307 30.1561456,21.1515688 C30.4546309,21.4559068 30.8762583,21.6064555 31.3,21.56 L31.68,21.56 L31.08,22.81 L31.08,22.78 Z" id="Shape" fill="#333333"></path>
                    <path d="M34.17,17.09 L31.73,22.78 L33.32,22.78 L33.77,21.64 L36.39,21.64 L36.84,22.78 L38.47,22.78 L36,17.09 L34.17,17.09 Z M35.08,18.42 L35.88,20.42 L34.27,20.42 L35.08,18.42 Z" id="Shape" fill="#333333"></path>
                    <polygon id="Shape" fill="#333333" points="38.63 22.78 38.63 17.09 40.44 17.09 42.75 20.66 42.75 17.09 44.17 17.09 44.17 22.78 42.42 22.78 40.05 19.11 40.05 22.78 38.63 22.78"></polygon>
                    <polygon id="Shape" fill="#333333" points="10.36 32.72 10.36 27.04 15 27.04 15 28.31 11.8 28.31 11.8 29.28 14.92 29.28 14.92 30.48 11.8 30.48 11.8 31.49 15 31.49 15 32.72 10.36 32.72"></polygon>
                    <polygon id="Shape" fill="#333333" points="33.08 32.72 33.08 27.04 37.72 27.04 37.72 28.31 34.52 28.31 34.52 29.28 37.63 29.28 37.63 30.48 34.52 30.48 34.52 31.49 37.72 31.49 37.72 32.72 33.08 32.72"></polygon>
                    <polygon id="Shape" fill="#333333" points="15.18 32.72 17.43 29.92 15.12 27.04 16.91 27.04 18.29 28.82 19.67 27.04 21.39 27.04 19.11 29.88 21.37 32.73 19.58 32.73 18.25 30.97 16.94 32.73 15.18 32.72"></polygon>
                    <path d="M21.54,27 L21.54,32.69 L23,32.69 L23,30.89 L24.5,30.89 C25.0673921,30.9528048 25.6345808,30.7701579 26.0587057,30.3880634 C26.4828307,30.0059688 26.7234654,29.4608469 26.72,28.89 C26.7325435,28.3637666 26.5227178,27.8566161 26.1420423,27.4930709 C25.7613667,27.1295258 25.245099,26.9432571 24.72,26.98 L21.54,27 Z M23,28.33 L24.58,28.33 C24.7616251,28.3128603 24.9419323,28.3740453 25.0756173,28.4981813 C25.2093023,28.6223174 25.2836574,28.7976047 25.28,28.98 C25.280529,29.1640606 25.2041728,29.3399805 25.0693615,29.465298 C24.9345502,29.5906155 24.7535323,29.6539448 24.57,29.64 L23,29.64 L23,28.33 Z" id="Shape" fill="#333333"></path>
                    <path d="M27.34,27 L27.34,32.68 L28.76,32.68 L28.76,30.68 L29.36,30.68 L31.06,32.68 L32.8,32.68 L30.93,30.59 C31.8262302,30.5016249 32.504758,29.740456 32.49,28.84 C32.4919588,28.3229716 32.2762972,27.828976 31.8957972,27.4789161 C31.5152973,27.1288561 31.0050733,26.955037 30.49,27 L27.34,27 Z M28.76,28.27 L30.38,28.27 C30.7299381,28.2579585 31.0283757,28.5212858 31.06,28.87 C31.0386583,29.2116468 30.7522599,29.4760146 30.41,29.47 L28.76,29.47 L28.76,28.27 Z" id="Shape" fill="#333333"></path>
                    <path d="M38.38,32.72 L38.38,31.49 L41.22,31.49 C41.64,31.49 41.83,31.26 41.83,31.01 C41.83,30.76 41.64,30.53 41.22,30.53 L39.94,30.53 C39.4731492,30.5755343 39.0100143,30.4126065 38.6745004,30.0848055 C38.3389864,29.7570045 38.1653335,29.2977834 38.2,28.83 C38.2,27.92 38.77,27.04 40.43,27.04 L43.2,27.04 L42.6,28.32 L40.2,28.32 C39.75,28.32 39.61,28.56 39.61,28.79 C39.6097461,28.9253249 39.6654684,29.0547297 39.7639566,29.1475359 C39.8624447,29.240342 39.9949288,29.2882855 40.13,29.28 L41.48,29.28 C41.9446233,29.2129065 42.4147579,29.3586126 42.7600033,29.6767038 C43.1052486,29.994795 43.2888933,30.4514474 43.26,30.92 C43.2912113,31.4152118 43.1045052,31.8993426 42.7488698,32.2453662 C42.3932345,32.5913898 41.904171,32.7647644 41.41,32.72 L38.38,32.72 Z" id="Shape" fill="#333333"></path>
                    <path d="M43.6,32.72 L43.6,31.49 L46.32,31.49 C46.74,31.49 46.92,31.26 46.92,31.01 C46.92,30.76 46.74,30.53 46.32,30.53 L45.15,30.53 C44.6831492,30.5755343 44.2200143,30.4126065 43.8845004,30.0848055 C43.5489864,29.7570045 43.3753335,29.2977834 43.41,28.83 C43.41,27.92 43.98,27.04 45.64,27.04 L48.36,27.04 L47.76,28.32 L45.42,28.32 C44.96,28.32 44.82,28.56 44.82,28.79 C44.8224782,28.9262291 44.8804439,29.0555467 44.9804896,29.1480418 C45.0805354,29.240537 45.2139952,29.2881976 45.35,29.28 L46.57,29.28 C47.0362007,29.2095633 47.509247,29.3537562 47.8568896,29.6722668 C48.2045323,29.9907774 48.3894701,30.4494302 48.36,30.92 C48.3916085,31.4171202 48.2035954,31.903091 47.8456424,32.2494972 C47.4876894,32.5959033 46.995817,32.7678861 46.5,32.72 L43.6,32.72 Z" id="Shape" fill="#333333"></path>
                </g>
            </g>
        </g>
    </g>
</svg>