<?xml version="1.0" encoding="UTF-8"?>
<svg width="48px" height="31px" viewBox="0 0 48 31" version="1.1" xmlns="http://www.w3.org/2000/svg" xmlns:xlink="http://www.w3.org/1999/xlink">
    <!-- Generator: Sketch 51.1 (57501) - http://www.bohemiancoding.com/sketch -->
    <title>discover_b&amp;w</title>
    <desc>Created with Sketch.</desc>
    <defs>
        <radialGradient cx="50%" cy="50%" fx="50%" fy="50%" r="50%" id="radialGradient-1">
            <stop stop-color="#FFFFFF" offset="0%"></stop>
            <stop stop-color="#333333" offset="100%"></stop>
        </radialGradient>
    </defs>
    <g id="Page-1" stroke="none" stroke-width="1" fill="none" fill-rule="evenodd">
        <g id="Fill-in-the-form" transform="translate(-722.000000, -833.000000)">
            <g id="Discover" transform="translate(706.000000, 808.000000)">
                <g id="discover_b&amp;w" transform="translate(16.000000, 25.000000)">
                    <path d="M4.49,13.32 C4.49,13.32 7.26,13.63 7.26,11.18 C7.26,8.68 4.49,9 4.49,9 L4.49,13.32 Z M3.25,7.82 L5.41,7.82 C7.17080719,7.89845856 8.56965627,9.32790747 8.61,11.09 L8.61,11.14 C8.57484752,12.9059799 7.17457383,14.3412604 5.41,14.42 L3.25,14.42 L3.25,7.82 Z" id="Shape" fill="#333333" fill-rule="nonzero"></path>
                    <rect id="Rectangle-path" fill="#333333" fill-rule="nonzero" x="9.17" y="7.82" width="1.32" height="6.61"></rect>
                    <path d="M14.54,9.35 C14.2804766,9.06473205 13.9239284,8.88645793 13.54,8.85 C13.1057086,8.79990326 12.7055953,9.09129013 12.62,9.52 C12.62,9.8 12.62,9.96 13.44,10.31 C14.26,10.66 15.5,10.9 15.5,12.37 C15.5193033,12.9592539 15.2957823,13.5305813 14.8817389,13.9502965 C14.4676955,14.3700117 13.899462,14.6012848 13.31,14.59 C12.3603011,14.5974068 11.4702078,14.1279483 10.94,13.34 L11.77,12.52 C12.0807125,13.021389 12.6118946,13.3445557 13.2,13.39 C13.462767,13.4384638 13.7330287,13.3605485 13.9296686,13.1796398 C14.1263085,12.9987311 14.2264365,12.7358878 14.2,12.47 C14.2,12.13 14,11.8 13.44,11.6 C12.88,11.4 11.34,11.18 11.34,9.7 C11.3391674,9.14994647 11.564913,8.62383056 11.9641268,8.24542881 C12.3633407,7.86702706 12.9007785,7.66974639 13.45,7.7 C14.1380409,7.75199676 14.7906745,8.02568181 15.31,8.48 L14.54,9.35 Z" id="Shape" fill="#333333"></path>
                    <path d="M21,9.62 C20.3791725,8.93145654 19.3983344,8.69651455 18.5329243,9.02905672 C17.6675143,9.36159889 17.0963895,10.1928976 17.0963895,11.12 C17.0963895,12.0471024 17.6675143,12.8784011 18.5329243,13.2109433 C19.3983344,13.5434854 20.3791725,13.3085435 21,12.62 L21,14.18 C19.5357781,14.950084 17.7317983,14.5828723 16.685127,13.3016798 C15.6384556,12.0204873 15.6384556,10.1795127 16.685127,8.89832021 C17.7317983,7.61712772 19.5357781,7.24991601 21,8.02 L21,9.62 Z" id="Shape" fill="#333333"></path>
                    <polygon id="Shape" fill="#333333" fill-rule="nonzero" points="28.16 7.82 29.58 7.82 31.39 12.15 33.11 7.82 34.53 7.82 31.75 14.6 30.93 14.6"></polygon>
                    <path d="M40.82,8.92 L40.82,10.85 L41.53,10.85 C42.0263491,10.8338062 42.4202641,10.4266131 42.42,9.93 L42.42,9.85 C42.4257056,9.34951283 42.0302546,8.93628877 41.53,8.92 L40.82,8.92 Z M39.53,7.82 L41.69,7.82 C42.2258176,7.78657955 42.7513432,7.97784912 43.1403286,8.34785965 C43.5293141,8.71787019 43.7466046,9.23318174 43.74,9.77 C43.7660835,10.6532411 43.1829163,11.4390693 42.33,11.67 L44.33,14.43 L42.73,14.43 L41,11.79 L40.86,11.79 L40.86,14.43 L39.53,14.43 L39.53,7.82 Z" id="Shape" fill="#333333" fill-rule="nonzero"></path>
                    <polygon id="Shape" fill="#333333" fill-rule="nonzero" points="38.58 10.43 38.58 11.59 36.33 11.59 36.33 13.26 38.68 13.26 38.68 14.43 35.02 14.43 35.02 7.82 38.68 7.82 38.68 8.99 36.33 8.99 36.33 10.43"></polygon>
                    <path d="M47.54,30.41 L0,30.41 L0,0 L47.54,0 L47.54,30.41 Z M0.42,30 L47.13,30 L47.13,0.42 L0.42,0.42 L0.42,30 Z" id="Shape" fill="#333333" fill-rule="nonzero"></path>
                    <path d="M10.42,30 C10.42,30 24,27.62 32.86,24 C37.9049657,22.1809073 42.7075484,19.7493899 47.16,16.76 L47.16,30 L10.42,30 Z" id="Shape" fill="#333333"></path>
                    <path d="M14.6,16.12 L16,17.5 L16.13,17.63 L16.25,17.78 L16.25,16.2 L16.59,16.2 L16.59,18.57 L15.11,17.15 C15.0290574,17.0736841 14.9554054,16.9899887 14.89,16.9 L14.89,18.48 L14.6,18.48 L14.6,16.12 Z" id="Shape" fill="#333333"></path>
                    <polygon id="Shape" fill="#333333" points="17.78 16.2 19.05 16.2 19.05 16.52 18.14 16.52 18.14 17.09 19.05 17.09 19.05 17.41 18.14 17.41 18.14 18.15 19.05 18.15 19.05 18.48 17.78 18.48"></polygon>
                    <polygon id="Shape" fill="#333333" points="20.72 18.49 20.35 18.49 20.35 16.51 19.85 16.51 19.85 16.19 21.21 16.19 21.21 16.51 20.72 16.51"></polygon>
                    <path d="M22.37,16.2 L22.8,17.35 L22.86,17.53 L22.92,17.71 C22.9421445,17.628563 22.9688534,17.5484363 23,17.47 L23,17.33 L23.46,16.12 L24,17.35 L24.12,17.71 C24.1152499,17.6567724 24.1152499,17.6032276 24.12,17.55 L24.18,17.36 L24.61,16.2 L25,16.2 L24.12,18.57 L23.6,17.27 C23.5581985,17.1833669 23.524715,17.0929614 23.5,17 C23.5,17.12 23.43,17.23 23.39,17.33 L22.88,18.62 L22,16.2 L22.37,16.2 Z" id="Shape" fill="#333333"></path>
                    <path d="M27.7,18.19 C27.4738773,18.4202888 27.1626704,18.5469427 26.84,18.54 C26.678952,18.5410593 26.5192637,18.5104807 26.37,18.45 C26.2212377,18.3954544 26.0875661,18.3063399 25.98,18.19 C25.8638861,18.0840768 25.7718191,17.954501 25.71,17.81 C25.6505499,17.6639251 25.6199859,17.5077092 25.62,17.35 C25.6186293,17.0252233 25.7570675,16.7155588 26,16.5 C26.2267932,16.2707134 26.5375495,16.1442428 26.86,16.15 C27.1818037,16.1476617 27.4912824,16.2736123 27.72,16.5 C27.9518462,16.7209345 28.0790553,17.0298708 28.07,17.35 C28.0736331,17.670268 27.9387474,17.9764949 27.7,18.19 Z M27.42,16.74 C27.2705612,16.5786196 27.0599338,16.4878319 26.84,16.49 C26.6450345,16.4799157 26.4541532,16.5483448 26.31,16.68 C26.2070412,16.7752481 26.1252706,16.8910897 26.07,17.02 C26.029028,17.125136 26.008658,17.2371706 26.01,17.35 C26.0078896,17.5737969 26.0941291,17.7893957 26.25,17.95 C26.4017777,18.1139978 26.6166024,18.2050252 26.84,18.2 C27.0631512,18.2037482 27.2774762,18.1129325 27.43,17.95 C27.5858709,17.7893957 27.6721104,17.5737969 27.67,17.35 C27.6756703,17.1206468 27.5849983,16.8994071 27.42,16.74 Z" id="Shape" fill="#333333"></path>
                    <path d="M29.27,18.48 L28.92,18.48 L28.92,16.2 L29.44,16.2 C29.5496561,16.1876981 29.6603439,16.1876981 29.77,16.2 C29.9450604,16.2284881 30.0927486,16.3458812 30.16,16.51 C30.201062,16.6010849 30.2215478,16.7000993 30.22,16.8 C30.239866,16.9514742 30.1946413,17.1042752 30.0955332,17.2205365 C29.9964252,17.3367979 29.8527091,17.405639 29.7,17.41 L30.48,18.41 L30.07,18.41 L29.31,17.41 L29.27,18.48 Z M29.36,17.17 C29.4855301,17.1816494 29.6120645,17.1645502 29.73,17.12 C29.81,17.12 29.84,16.99 29.84,16.86 C29.8545269,16.7567708 29.81253,16.6536875 29.73,16.59 C29.6139933,16.5375588 29.4871462,16.5135607 29.36,16.52 L29.29,16.52 L29.29,17.17 L29.36,17.17 Z" id="Shape" fill="#333333"></path>
                    <polygon id="Shape" fill="#333333" points="31.27 16.2 31.64 16.2 31.64 17.15 32.45 16.2 32.91 16.2 32.01 17.22 33.01 18.48 32.53 18.48 31.64 17.32 31.64 18.48 31.27 18.48"></polygon>
                    <circle id="Oval" fill="url(#radialGradient-1)" fill-rule="nonzero" cx="24.96" cy="11.16" r="3.43"></circle>
                </g>
            </g>
        </g>
    </g>
</svg>