<?xml version="1.0" encoding="UTF-8"?>
<svg width="48px" height="38px" viewBox="0 0 48 38" version="1.1" xmlns="http://www.w3.org/2000/svg" xmlns:xlink="http://www.w3.org/1999/xlink">
    <!-- Generator: Sketch 51.1 (57501) - http://www.bohemiancoding.com/sketch -->
    <title>mastercard_color</title>
    <desc>Created with Sketch.</desc>
    <defs></defs>
    <g id="Page-1" stroke="none" stroke-width="1" fill="none" fill-rule="evenodd">
        <g id="Fill-in-the-form" transform="translate(-549.000000, -828.000000)" fill-rule="nonzero">
            <g id="mastercard" transform="translate(533.000000, 682.000000)">
                <g id="mastercard_color" transform="translate(16.000000, 0.000000)">
                    <path d="M8.22,179.47 C8.07998753,179.328811 7.91346789,179.216665 7.73,179.14 C7.53327415,179.056925 7.32333509,179.00952 7.11,179 L6.74,179 C6.60971277,179.022751 6.48229358,179.059635 6.36,179.11 C6.23376543,179.162654 6.11586373,179.233395 6.01,179.32 C5.89291544,179.418122 5.79465021,179.536718 5.72,179.67 C5.59312414,179.454867 5.40985192,179.278511 5.19,179.16 C4.9483683,179.039656 4.67949667,178.984503 4.41,179 C4.31024145,178.990172 4.20975855,178.990172 4.11,179 C4.00186651,179.009923 3.89663595,179.040474 3.8,179.09 C3.68940714,179.130259 3.58756605,179.191363 3.5,179.27 C3.40176769,179.348878 3.31728944,179.443494 3.25,179.55 L3.25,179.07 L2.42,179.07 L2.42,183 L3.25,183 L3.25,180.88 C3.24861999,180.729596 3.27576593,180.580293 3.33,180.44 C3.38335357,180.320251 3.45411869,180.209049 3.54,180.11 C3.63300742,180.023629 3.74160732,179.955754 3.86,179.91 C3.9816548,179.864828 4.11023454,179.841142 4.24,179.84 C4.48623904,179.827707 4.72494064,179.92686 4.89,180.11 C5.05446849,180.327991 5.13599842,180.597394 5.12,180.87 L5.12,183.06 L6,183.06 L6,180.88 C5.97264942,180.734608 5.97264942,180.585392 6,180.44 C6.04972322,180.318338 6.12084746,180.206571 6.21,180.11 C6.30300742,180.023629 6.41160732,179.955754 6.53,179.91 C6.6516548,179.864828 6.78023454,179.841142 6.91,179.84 C7.15623904,179.827707 7.39494064,179.92686 7.56,180.11 C7.72446849,180.327991 7.80599842,180.597394 7.79,180.87 L7.79,183.06 L8.62,183.06 L8.62,180.59 C8.62608466,180.390266 8.59905233,180.190902 8.54,180 C8.47453413,179.801523 8.36515463,179.620363 8.22,179.47 Z" id="Shape" fill="#1D1D1B"></path>
                    <path d="M12.61,179.61 C12.3225787,179.219951 11.8644551,178.992751 11.38,179 C10.8535492,178.993205 10.3474055,179.202893 9.98,179.58 C9.80377055,179.76903 9.66468404,179.989533 9.57,180.23 C9.46858833,180.494867 9.41771024,180.776392 9.42,181.06 C9.41674707,181.34369 9.46765752,181.625394 9.57,181.89 C9.6644236,182.133588 9.80346975,182.357418 9.98,182.55 C10.1602088,182.730224 10.3743285,182.87297 10.61,182.97 C10.8517356,183.079438 11.1146774,183.134075 11.38,183.13 C11.8591207,183.144299 12.3162218,182.928755 12.61,182.55 L12.61,183.03 L13.47,183.03 L13.47,179.13 L12.61,179.13 L12.61,179.61 Z M12.61,181.61 C12.5564724,181.757529 12.4749831,181.893344 12.37,182.01 C12.262707,182.122049 12.1333064,182.210586 11.99,182.27 C11.8400139,182.340388 11.6756164,182.374637 11.51,182.37 C11.3379502,182.374502 11.1670839,182.340328 11.01,182.27 C10.8712066,182.203361 10.7458016,182.11185 10.64,182 C10.5366377,181.883905 10.458339,181.747733 10.41,181.6 C10.351857,181.443388 10.3246872,181.276973 10.33,181.11 C10.3254775,180.946339 10.3526428,180.783348 10.41,180.63 C10.45606,180.481262 10.5346234,180.344631 10.64,180.23 C10.7407829,180.112586 10.8674384,180.020162 11.01,179.96 C11.1670839,179.889672 11.3379502,179.855498 11.51,179.86 C11.674454,179.857064 11.8377801,179.887688 11.99,179.95 C12.1337706,180.013115 12.2630936,180.105002 12.37,180.22 C12.4727929,180.334516 12.5540937,180.46663 12.61,180.61 C12.6672774,180.770306 12.6944006,180.939826 12.69,181.11 C12.683072,181.275391 12.6457852,181.438097 12.58,181.59 L12.61,181.61 Z" id="Shape" fill="#1D1D1B"></path>
                    <path d="M17.4,181.09 C17.1042123,180.880717 16.7601283,180.749965 16.4,180.71 L16,180.65 L15.75,180.65 C15.6765125,180.638845 15.6054828,180.615169 15.54,180.58 C15.4903301,180.551555 15.4462737,180.514277 15.41,180.47 C15.3739415,180.420936 15.3562465,180.360773 15.36,180.3 C15.3560217,180.160358 15.4289846,180.029793 15.55,179.96 C15.71702,179.864685 15.9079806,179.819548 16.1,179.83 C16.2197966,179.82012 16.3402034,179.82012 16.46,179.83 L16.8,179.91 L17.09,180.02 L17.31,180.13 L17.68,179.47 C17.4569749,179.331009 17.2142377,179.226497 16.96,179.16 C16.6758595,179.086476 16.3834984,179.049511 16.09,179.05 C15.8601767,179.047008 15.6311318,179.077323 15.41,179.14 C15.2258021,179.190549 15.0527821,179.275363 14.9,179.39 C14.7604133,179.493288 14.6501283,179.631145 14.58,179.79 C14.5013787,179.951736 14.4636095,180.130281 14.47,180.31 C14.4620085,180.602593 14.5826107,180.883999 14.8,181.08 C15.0926454,181.295118 15.4383459,181.426484 15.8,181.46 L16.21,181.51 C16.3883975,181.531495 16.5612944,181.585737 16.72,181.67 C16.8222591,181.726636 16.8869251,181.833145 16.89,181.95 C16.8854154,182.100687 16.7964971,182.235998 16.66,182.3 C16.4519246,182.401319 16.2208679,182.446151 15.99,182.43 C15.8468771,182.440983 15.7031229,182.440983 15.56,182.43 L15.21,182.34 C15.1131534,182.304675 15.0194832,182.261185 14.93,182.21 L14.69,182 L14.29,182.64 C14.4280532,182.74587 14.5793301,182.833274 14.74,182.9 C14.8902547,182.95899 15.0438541,183.009077 15.2,183.05 C15.3384012,183.084466 15.4786196,183.111174 15.62,183.13 L16,183.13 C16.2528796,183.133292 16.5050788,183.103028 16.75,183.04 C16.950896,182.988029 17.1406551,182.899927 17.31,182.78 C17.4553215,182.670653 17.5748114,182.53068 17.66,182.37 C17.7405792,182.208603 17.781706,182.030386 17.78,181.85 C17.7832323,181.550227 17.641758,181.267278 17.4,181.09 Z" id="Shape" fill="#1D1D1B"></path>
                    <path d="M25.42,179.6 C25.2543831,179.420832 25.0535124,179.277839 24.83,179.18 C24.5930908,179.078583 24.3376918,179.027504 24.08,179.03 C23.8092272,179.026001 23.5404626,179.077032 23.29,179.18 C23.0560321,179.27472 22.8447422,179.417852 22.67,179.6 C22.4933994,179.786864 22.3572305,180.008139 22.27,180.25 C22.171904,180.518963 22.1244379,180.80376 22.13,181.09 C22.1275336,181.379269 22.1748921,181.666802 22.27,181.94 C22.4588088,182.423037 22.8387739,182.806621 23.32,183 C23.5778772,183.101499 23.8528774,183.152425 24.13,183.15 C24.4263472,183.148998 24.7204273,183.098294 25,183 C25.2854653,182.915748 25.548527,182.768843 25.77,182.57 L25.32,182 C25.1617385,182.137279 24.9783518,182.242556 24.78,182.31 C24.590875,182.379426 24.3914367,182.41661 24.19,182.42 C24.0511138,182.420448 23.9129339,182.400226 23.78,182.36 C23.6570538,182.320247 23.5419927,182.259332 23.44,182.18 C23.327532,182.098614 23.2351756,181.992576 23.17,181.87 C23.0932379,181.730288 23.0424175,181.577827 23.02,181.42 L25.92,181.42 C25.92,181.42 25.92,181.32 25.92,181.26 C25.92,181.2 25.92,181.15 25.92,181.1 C25.9223174,180.814006 25.8749468,180.529783 25.78,180.26 C25.7027995,180.019221 25.5806417,179.795265 25.42,179.6 Z M23,180.76 C23.0187179,180.624382 23.0592408,180.492682 23.12,180.37 C23.1698574,180.254366 23.2411061,180.14919 23.33,180.06 C23.4170213,179.970922 23.5229715,179.902567 23.64,179.86 C23.7671426,179.809555 23.9032825,179.785731 24.04,179.79 C24.287548,179.781809 24.5283253,179.871651 24.71,180.04 C24.8939378,180.238687 25.0095625,180.490959 25.04,180.76 L23,180.76 Z" id="Shape" fill="#1D1D1B"></path>
                    <path d="M36.79,179.61 C36.656226,179.431046 36.4812846,179.286977 36.28,179.19 C36.0574972,179.076346 35.8096973,179.021279 35.56,179.03 C35.2959479,179.028679 35.0342479,179.07966 34.79,179.18 C34.5555652,179.27845 34.3443605,179.424931 34.17,179.61 C33.9873331,179.795914 33.8444308,180.017072 33.75,180.26 C33.6485883,180.524867 33.5977102,180.806392 33.6,181.09 C33.5967471,181.37369 33.6476575,181.655394 33.75,181.92 C33.8451888,182.165503 33.9879187,182.389793 34.17,182.58 C34.5400528,182.947075 35.0387898,183.155181 35.56,183.16 C35.8096973,183.168721 36.0574972,183.113654 36.28,183 C36.4812846,182.903023 36.656226,182.758954 36.79,182.58 L36.79,183.06 L37.65,183.06 L37.65,179.13 L36.79,179.13 L36.79,179.61 Z M36.79,181.61 C36.7364724,181.757529 36.6549831,181.893344 36.55,182.01 C36.442707,182.122049 36.3133064,182.210586 36.17,182.27 C36.0200139,182.340388 35.8556164,182.374637 35.69,182.37 C35.5179502,182.374502 35.3470839,182.340328 35.19,182.27 C35.0512066,182.203361 34.9258016,182.11185 34.82,182 C34.7166377,181.883905 34.638339,181.747733 34.59,181.6 C34.531857,181.443388 34.5046872,181.276973 34.51,181.11 C34.5054775,180.946339 34.5326428,180.783348 34.59,180.63 C34.63606,180.481262 34.7146234,180.344631 34.82,180.23 C34.9207829,180.112586 35.0474384,180.020162 35.19,179.96 C35.3470839,179.889672 35.5179502,179.855498 35.69,179.86 C35.854454,179.857064 36.0177801,179.887688 36.17,179.95 C36.3137706,180.013115 36.4430936,180.105002 36.55,180.22 C36.6527929,180.334516 36.7340937,180.46663 36.79,180.61 C36.8472774,180.770306 36.8744006,180.939826 36.87,181.11 C36.863072,181.275391 36.8257852,181.438097 36.76,181.59 L36.79,181.61 Z" id="Shape" fill="#1D1D1B"></path>
                    <path d="M21.07,182.27 C20.9391195,182.320633 20.8003147,182.347717 20.66,182.35 C20.5806521,182.364445 20.4993479,182.364445 20.42,182.35 C20.2579731,182.290848 20.1348661,182.156549 20.09,181.99 C20.0549642,181.883578 20.0380622,181.772024 20.04,181.66 L20.04,179.91 L21.42,179.91 L21.42,179.13 L20,179.13 L20,177.94 L19.14,177.94 L19.14,179.13 L18.4,179.13 L18.4,179.91 L19.18,179.91 L19.18,181.63 C19.1467307,182.050193 19.2795743,182.466675 19.55,182.79 C19.8242431,183.035863 20.1817723,183.168149 20.55,183.16 C20.7789732,183.163471 21.006465,183.122726 21.22,183.04 L21.59,182.87 L21.29,182.15 C21.2209433,182.197386 21.1472275,182.237594 21.07,182.27 Z" id="Shape" fill="#1D1D1B"></path>
                    <path d="M28.8,179 C28.576379,178.994654 28.3543634,179.039057 28.15,179.13 C27.9489635,179.25069 27.7806896,179.418963 27.66,179.62 L27.66,179.1 L26.89,179.1 L26.89,183.03 L27.67,183.03 L27.67,180.9 C27.6655812,180.746979 27.6893083,180.594448 27.74,180.45 C27.7828942,180.329433 27.847266,180.217629 27.93,180.12 C28.0126581,180.028017 28.1152804,179.956181 28.23,179.91 C28.3484464,179.865764 28.47358,179.84209 28.6,179.84 C28.7131453,179.830766 28.8268547,179.830766 28.94,179.84 L29.11,179.84 L29.37,179.02 L29.16,179.02 C29.0408469,179.002508 28.9203574,178.995814 28.8,179 Z" id="Shape" fill="#1D1D1B"></path>
                    <path d="M40.7,179 C40.476379,178.994654 40.2543634,179.039057 40.05,179.13 C39.8489635,179.25069 39.6806896,179.418963 39.56,179.62 L39.56,179.1 L38.79,179.1 L38.79,183.03 L39.57,183.03 L39.57,180.9 C39.5655812,180.746979 39.5893083,180.594448 39.64,180.45 C39.6828942,180.329433 39.747266,180.217629 39.83,180.12 C39.9145518,180.03018 40.0166652,179.958701 40.13,179.91 C40.2516548,179.864828 40.3802345,179.841142 40.51,179.84 C40.6198313,179.831385 40.7301687,179.831385 40.84,179.84 L41.01,179.84 L41.27,179.02 L41.06,179.02 C40.9408469,179.002508 40.8203574,178.995814 40.7,179 Z" id="Shape" fill="#1D1D1B"></path>
                    <path d="M44.7,177.54 L44.7,179.61 C44.4125787,179.219951 43.9544551,178.992751 43.47,179 C42.9435492,178.993205 42.4374055,179.202893 42.07,179.58 C41.8937705,179.76903 41.754684,179.989533 41.66,180.23 C41.5585883,180.494867 41.5077102,180.776392 41.51,181.06 C41.5067471,181.34369 41.5576575,181.625394 41.66,181.89 C41.7544236,182.133588 41.8934698,182.357418 42.07,182.55 C42.2502088,182.730224 42.4643285,182.87297 42.7,182.97 C42.9417356,183.079438 43.2046774,183.134075 43.47,183.13 C43.9491207,183.144299 44.4062218,182.928755 44.7,182.55 L44.7,183.03 L45.56,183.03 L45.56,177.54 L44.7,177.54 Z M44.7,181.59 C44.6464724,181.737529 44.5649831,181.873344 44.46,181.99 C44.352707,182.102049 44.2233064,182.190586 44.08,182.25 C43.9300139,182.320388 43.7656164,182.354637 43.6,182.35 C43.4279502,182.354502 43.2570839,182.320328 43.1,182.25 C42.9521179,182.19259 42.8164069,182.10777 42.7,182 C42.5966377,181.883905 42.518339,181.747733 42.47,181.6 C42.411857,181.443388 42.3846872,181.276973 42.39,181.11 C42.3854775,180.946339 42.4126428,180.783348 42.47,180.63 C42.51606,180.481262 42.5946234,180.344631 42.7,180.23 C42.8007829,180.112586 42.9274384,180.020162 43.07,179.96 C43.2270839,179.889672 43.3979502,179.855498 43.57,179.86 C43.734454,179.857064 43.8977801,179.887688 44.05,179.95 C44.1937706,180.013115 44.3230936,180.105002 44.43,180.22 C44.5327929,180.334516 44.6140937,180.46663 44.67,180.61 C44.7272774,180.770306 44.7544006,180.939826 44.75,181.11 C44.7526283,181.273525 44.7255214,181.436167 44.67,181.59 L44.7,181.59 Z" id="Shape" fill="#1D1D1B"></path>
                    <path d="M30.85,180.19 C30.9609535,180.077698 31.0936622,179.989226 31.24,179.93 C31.3960037,179.868691 31.5623919,179.83813 31.73,179.84 C31.9106278,179.838057 32.0901387,179.86854 32.26,179.93 C32.4148666,179.985353 32.5575078,180.070258 32.68,180.18 L33.09,179.49 C32.9311189,179.366813 32.7561719,179.265882 32.57,179.19 C32.3036943,179.080433 32.0179369,179.026003 31.73,179.03 C31.441891,179.023993 31.1557268,179.0785 30.89,179.19 C30.3899746,179.386322 29.9899455,179.77554 29.78,180.27 C29.6714882,180.529618 29.6170462,180.808633 29.62,181.09 C29.615012,181.371549 29.6695347,181.650978 29.78,181.91 C29.881131,182.15717 30.0307396,182.381583 30.22,182.57 C30.4137193,182.754938 30.6411784,182.900919 30.89,183 C31.1557268,183.1115 31.441891,183.166007 31.73,183.16 C32.0179369,183.163997 32.3036943,183.109567 32.57,183 C32.7561719,182.924118 32.9311189,182.823187 33.09,182.7 L32.68,182 C32.5575078,182.109742 32.4148666,182.194647 32.26,182.25 C32.0901387,182.31146 31.9106278,182.341943 31.73,182.34 C31.5623919,182.34187 31.3960037,182.311309 31.24,182.25 C31.0936622,182.190774 30.9609535,182.102302 30.85,181.99 C30.7353659,181.877087 30.6466505,181.740602 30.59,181.59 C30.5276106,181.427334 30.4970568,181.254195 30.5,181.08 C30.498933,180.905958 30.529426,180.733164 30.59,180.57 C30.6504048,180.427233 30.7388128,180.298021 30.85,180.19 Z" id="Shape" fill="#1D1D1B"></path>
                    <path d="M47.36,182.48 C47.4128158,182.469493 47.4671842,182.469493 47.52,182.48 C47.5691644,182.500553 47.6134564,182.531217 47.65,182.57 C47.6885595,182.602801 47.7193077,182.643799 47.74,182.69 C47.7495576,182.742905 47.7495576,182.797095 47.74,182.85 C47.7505075,182.902816 47.7505075,182.957184 47.74,183.01 C47.7193077,183.056201 47.6885595,183.097199 47.65,183.13 C47.6134564,183.168783 47.5691644,183.199447 47.52,183.22 C47.4171139,183.260163 47.3028861,183.260163 47.2,183.22 C47.1493984,183.202165 47.1045058,183.171085 47.07,183.13 C47.0374258,183.092317 47.0135291,183.047938 47,183 C46.9894925,182.947184 46.9894925,182.892816 47,182.84 C46.9904424,182.787095 46.9904424,182.732905 47,182.68 C47.0206923,182.633799 47.0514405,182.592801 47.09,182.56 C47.1245058,182.518915 47.1693984,182.487835 47.22,182.47 C47.2668946,182.465261 47.314255,182.468644 47.36,182.48 Z M47.36,183.17 L47.47,183.17 L47.56,183.11 C47.58904,183.083 47.6098422,183.048329 47.62,183.01 C47.6592992,182.941932 47.6592992,182.858068 47.62,182.79 C47.6118891,182.753582 47.5904971,182.721494 47.56,182.7 C47.5366727,182.669163 47.5056302,182.645019 47.47,182.63 L47.36,182.63 L47.25,182.63 L47.15,182.7 C47.1254571,182.72671 47.1052154,182.757072 47.09,182.79 C47.0631034,182.860867 47.0631034,182.939133 47.09,183.01 L47.15,183.11 L47.25,183.17 L47.36,183.17 Z M47.36,182.7 C47.3945076,182.682205 47.4354924,182.682205 47.47,182.7 C47.491525,182.718983 47.5038562,182.7463 47.5038562,182.775 C47.5038562,182.8037 47.491525,182.831017 47.47,182.85 C47.47,182.85 47.47,182.85 47.4,182.85 L47.51,182.98 L47.39,182.98 L47.29,182.85 L47.29,182.98 L47.19,182.98 L47.19,182.7 L47.36,182.7 Z M47.29,182.79 L47.29,182.85 L47.4,182.85 C47.4,182.85 47.4,182.85 47.4,182.85 L47.29,182.85 L47.29,182.79 Z" id="Shape" fill="#1D1D1B"></path>
                    <path d="M18.35,160.79 C18.3540394,156.261316 20.4368307,151.985142 24,149.19 C17.9401081,144.383057 9.20070428,145.053183 3.94452639,150.727827 C-1.3116515,156.402471 -1.3116515,165.167529 3.94452639,170.842173 C9.20070428,176.516817 17.9401081,177.186943 24,172.38 C20.4360152,169.589914 18.3526297,165.316208 18.35,160.79 Z" id="Shape" fill="#E20D17"></path>
                    <path d="M23.96,172.39 C24.3085968,172.39 29.58,168.367824 29.58,160.79 C29.58,153.212176 27.0638403,149.19 23.96,149.19 C23.1895471,149.19 18.34,153.212176 18.34,160.79 C18.34,168.367824 23.6114032,172.39 23.96,172.39 Z" id="Oval" fill="#EA610A"></path>
                    <path d="M33.13,146 C29.8147779,146.007818 26.5987189,147.131501 24,149.19 C27.5496259,151.9909 29.6207446,156.263398 29.6207446,160.785 C29.6207446,165.306602 27.5496259,169.5791 24,172.38 C29.0865231,176.412172 36.2076562,176.656675 41.5587627,172.982878 C46.9098692,169.30908 49.2402891,162.575622 47.3049394,156.380015 C45.3695897,150.184407 39.6208002,145.974688 33.13,146 Z" id="Shape" fill="#F59E00"></path>
                </g>
            </g>
        </g>
    </g>
</svg>