<?xml version="1.0" encoding="UTF-8"?>
<svg width="96px" height="24px" viewBox="0 0 96 24" version="1.1" xmlns="http://www.w3.org/2000/svg" xmlns:xlink="http://www.w3.org/1999/xlink">
    <!-- Generator: Sketch 51.1 (57501) - http://www.bohemiancoding.com/sketch -->
    <title>paypal_b&amp;w</title>
    <desc>Created with Sketch.</desc>
    <defs></defs>
    <g id="Page-1" stroke="none" stroke-width="1" fill="none" fill-rule="evenodd">
        <g id="Fill-in-the-form" transform="translate(-569.000000, -911.000000)" fill="#333333" fill-rule="nonzero">
            <g id="PayPal" transform="translate(446.000000, 898.000000)">
                <g id="paypal_b&amp;w" transform="translate(122.000000, 13.000000)">
                    <path d="M74.52,5.18 L69.27,5.18 C68.9099403,5.18082125 68.6042548,5.44405042 68.55,5.8 L66.43,19.26 C66.4092674,19.3855879 66.4452415,19.5139076 66.5282381,19.6104152 C66.6112347,19.7069229 66.7327237,19.7616998 66.86,19.76 L69.55,19.76 C69.8031683,19.7631313 70.0203036,19.5800564 70.06,19.33 L70.66,15.51 C70.7186571,15.1580235 71.0231694,14.9000339 71.38,14.9 L73,14.9 C76.46,14.9 78.46,13.23 79,9.9 C79.2926997,8.72661028 79.047074,7.48381792 78.33,6.51 C77.3120746,5.53658341 75.9225721,5.05153399 74.52,5.18 Z M75.13,10.1 C74.84,12 73.4,12 72,12 L71.21,12 L71.76,8.48 C71.7985033,8.26684453 71.9833992,8.11136385 72.2,8.11 L72.56,8.11 C73.56,8.11 74.4,8.11 74.86,8.65 C75.1566835,9.07102758 75.2552571,9.60040416 75.13,10.1 Z" id="Shape" opacity="0.5"></path>
                    <path d="M37.08,5.18 L31.83,5.18 C31.4699403,5.18082125 31.1642548,5.44405042 31.11,5.8 L29,19.26 C28.9792674,19.3855879 29.0152415,19.5139076 29.0982381,19.6104152 C29.1812347,19.7069229 29.3027237,19.7616998 29.43,19.76 L31.94,19.76 C32.2968306,19.7599661 32.6013429,19.5019765 32.66,19.15 L33.23,15.51 C33.2886571,15.1580235 33.5931694,14.9000339 33.95,14.9 L35.6,14.9 C39.06,14.9 41.05,13.23 41.6,9.9 C41.8926997,8.72661028 41.647074,7.48381792 40.93,6.51 C39.9026006,5.52549533 38.4960091,5.03958188 37.08,5.18 Z M37.69,10.1 C37.4,12 36,12 34.57,12 L33.78,12 L34.33,8.48 C34.3677617,8.27047658 34.547188,8.11608654 34.76,8.11 L35.13,8.11 C36.07,8.11 36.97,8.11 37.43,8.65 C37.7232372,9.07259494 37.8181378,9.60184816 37.69,10.1 Z" id="Shape"></path>
                    <path d="M52.77,10 L50.26,10 C50.0418978,9.99722486 49.8546832,10.1546553 49.82,10.37 L49.71,11.07 L49.54,10.81 C48.7485752,10.03047 47.6408578,9.66123087 46.54,9.81 C43.7024257,9.90116175 41.3528008,12.0429678 41,14.86 C40.7343269,16.2206781 41.0737872,17.6296208 41.93,18.72 C42.7328122,19.5883909 43.8787467,20.0570159 45.06,20 C46.3658208,20.0144398 47.6216144,19.4984096 48.54,18.57 L48.43,19.27 C48.4092674,19.3955879 48.4452415,19.5239076 48.5282381,19.6204152 C48.6112347,19.7169229 48.7327237,19.7716998 48.86,19.77 L51.12,19.77 C51.4783704,19.7742035 51.7852699,19.5141915 51.84,19.16 L53.2,10.55 C53.2387235,10.417166 53.2111615,10.2738136 53.1259406,10.1648101 C53.0407197,10.0558066 52.9082527,9.99447078 52.77,10 Z M49.27,14.89 C49.0594983,16.2891997 47.8447106,17.3157809 46.43,17.29 C45.7937312,17.3249796 45.1747264,17.0759125 44.74,16.61 C44.3542353,16.106896 44.2113997,15.458642 44.35,14.84 C44.5467271,13.4399091 45.7563567,12.4061476 47.17,12.43 C47.8006034,12.3939836 48.4139248,12.6437193 48.84,13.11 C49.2534889,13.6192949 49.4118346,14.2895023 49.27,14.93 L49.27,14.89 Z" id="Shape"></path>
                    <path d="M90.21,10 L87.7,10 C87.4824469,9.99328225 87.2958078,10.1538787 87.27,10.37 L87.15,11.07 L87,10.85 C86.2085752,10.07047 85.1008578,9.70123087 84,9.85 C81.1322463,9.90781201 78.7423669,12.0633896 78.39,14.91 C78.1243269,16.2706781 78.4637872,17.6796208 79.32,18.77 C80.1434314,19.6338622 81.309586,20.084922 82.5,20 C83.814201,20.0172644 85.0784573,19.4971132 86,18.56 L85.89,19.26 C85.8692674,19.3855879 85.9052415,19.5139076 85.9882381,19.6104152 C86.0712347,19.7069229 86.1927237,19.7616998 86.32,19.76 L88.58,19.76 C88.9383704,19.7642035 89.2452699,19.5041915 89.3,19.15 L90.66,10.54 C90.6962229,10.4049556 90.6645255,10.2607311 90.5750162,10.1533199 C90.4855068,10.0459086 90.3493626,9.98872317 90.21,10 Z M86.71,14.89 C86.5078101,16.2938237 85.2878837,17.3247473 83.87,17.29 C83.2337312,17.3249796 82.6147264,17.0759125 82.18,16.61 C81.7942353,16.106896 81.6513997,15.458642 81.79,14.84 C81.9908871,13.4421947 83.1979662,12.4106129 84.61,12.43 C85.2406034,12.3939836 85.8539248,12.6437193 86.28,13.11 C86.6934889,13.6192949 86.8518346,14.2895023 86.71,14.93 L86.71,14.89 Z" id="Shape" opacity="0.5"></path>
                    <path d="M66.16,10 L63.63,10 C63.3890553,9.99955358 63.163858,10.1196588 63.03,10.32 L59.54,15.45 L58.07,10.52 C57.9744199,10.2129955 57.6915264,10.002846 57.37,10 L54.88,10 C54.740426,9.99888542 54.6089944,10.0655862 54.5274904,10.1788966 C54.4459864,10.292207 54.4245514,10.4380282 54.47,10.57 L57.25,18.74 L54.64,22.43 C54.5403876,22.5611638 54.5244477,22.7377029 54.5989547,22.8845882 C54.6734617,23.0314735 54.8253239,23.1228955 54.99,23.12 L57.52,23.12 C57.7590642,23.1226919 57.9838728,23.0065408 58.12,22.81 L66.52,10.68 C66.6147879,10.5474487 66.6265037,10.3727049 66.5502587,10.2286866 C66.4740137,10.0846682 66.3229097,9.99612321 66.16,10 Z" id="Shape"></path>
                    <path d="M93.17,5.55 L91,19.26 C90.9792674,19.3855879 91.0152415,19.5139076 91.0982381,19.6104152 C91.1812347,19.7069229 91.3027237,19.7616998 91.43,19.76 L93.6,19.76 C93.9568306,19.7599661 94.2613429,19.5019765 94.32,19.15 L96.46,5.69 C96.4856388,5.55746151 96.4475472,5.42057604 96.3571314,5.32033243 C96.2667156,5.22008882 96.1344722,5.16812464 96,5.18 L93.61,5.18 C93.3933992,5.18136385 93.2085033,5.33684453 93.17,5.55 Z" id="Shape" opacity="0.5"></path>
                    <path d="M18.69,5.88 C19.0541181,4.42264355 18.6804453,2.879375 17.69,1.75 C16.64,0.52 14.7,3.34489923e-16 12.22,3.34489923e-16 L5,3.34489923e-16 C4.49474072,-0.00428540518 4.0656679,0.369007951 4,0.87 L1,19.87 C0.973934366,20.0476422 1.02615657,20.2278606 1.14316034,20.3640453 C1.26016411,20.5002301 1.43045844,20.5790063 1.61,20.58 L6.06,20.58 L5.76,22.53 C5.73321067,22.6853686 5.77698334,22.8445984 5.87942862,22.96444 C5.98187391,23.0842817 6.13235545,23.1522927 6.29,23.15 L10,23.15 C10.4433686,23.1504707 10.8210318,22.8279718 10.89,22.39 L10.89,22.2 L11.6,17.73 L11.6,17.48 C11.6689682,17.0420282 12.0466314,16.7195293 12.49,16.72 L13.05,16.72 C16.68,16.72 19.53,15.24 20.36,10.98 C20.7976084,9.50508972 20.5201082,7.91038882 19.61,6.67 C19.3251404,6.34782334 18.9868489,6.0771901 18.61,5.87" id="Shape" opacity="0.5"></path>
                    <path d="M18.69,5.88 C19.0541181,4.42264355 18.6804453,2.879375 17.69,1.75 C16.64,0.52 14.7,3.34489923e-16 12.22,3.34489923e-16 L5,3.34489923e-16 C4.49474072,-0.00428540518 4.0656679,0.369007951 4,0.87 L1,19.87 C0.973934366,20.0476422 1.02615657,20.2278606 1.14316034,20.3640453 C1.26016411,20.5002301 1.43045844,20.5790063 1.61,20.58 L6.06,20.58 L7.18,13.5 L7.18,13.73 C7.2456679,13.229008 7.67474072,12.8557146 8.18,12.86 L10.27,12.86 C14.42,12.86 17.67,11.17 18.62,6.3 C18.62,6.15 18.67,6.01 18.69,5.87" id="Shape" opacity="0.5"></path>
                    <path d="M8.38,5.91 C8.42653585,5.61811227 8.61342567,5.36767991 8.88,5.24 C9.00111251,5.17974505 9.13473097,5.14891002 9.27,5.15 L14.91,5.15 C15.5324333,5.14502763 16.15431,5.18849213 16.77,5.28 L17.25,5.37 L17.7,5.49 L17.91,5.56 C18.1777775,5.64662629 18.4385379,5.7536049 18.69,5.88 C19.0541181,4.42264355 18.6804453,2.879375 17.69,1.75 C16.64,0.52 14.7,3.34489923e-16 12.22,3.34489923e-16 L5,3.34489923e-16 C4.49474072,-0.00428540518 4.0656679,0.369007951 4,0.87 L1,19.87 C0.973934366,20.0476422 1.02615657,20.2278606 1.14316034,20.3640453 C1.26016411,20.5002301 1.43045844,20.5790063 1.61,20.58 L6.06,20.58 L7.18,13.5 L8.38,5.91 Z" id="Shape"></path>
                </g>
            </g>
        </g>
    </g>
</svg>