<?xml version="1.0" encoding="UTF-8"?>
<svg width="48px" height="16px" viewBox="0 0 48 16" version="1.1" xmlns="http://www.w3.org/2000/svg" xmlns:xlink="http://www.w3.org/1999/xlink">
    <!-- Generator: Sketch 51.1 (57501) - http://www.bohemiancoding.com/sketch -->
    <title>visa_b&amp;w</title>
    <desc>Created with Sketch.</desc>
    <defs></defs>
    <g id="Page-1" stroke="none" stroke-width="1" fill="none" fill-rule="evenodd">
        <g id="Fill-in-the-form" transform="translate(-635.000000, -840.000000)" fill="#333333" fill-rule="nonzero">
            <g id="VIsa" transform="translate(619.000000, 808.000000)">
                <g id="visa_b&amp;w" transform="translate(16.000000, 32.000000)">
                    <path d="M13.77,0.27 L10,10.39 L9.59,8.34 C8.65975076,6.05737254 6.86136905,4.23741025 4.59,3.28 L7.74,15.09 L11.74,15.09 L17.74,0.27 L13.77,0.27" id="Shape"></path>
                    <polyline id="Shape" points="16.98 15.1 19.38 0.26 23.22 0.26 20.82 15.1 16.98 15.1"></polyline>
                    <path d="M34.72,0.62 C33.6236,0.207493755 32.4614298,-0.00257783097 31.29,4.4408921e-16 C27.5,4.4408921e-16 24.83,2 24.81,4.9 C24.81,7.03 26.71,8.22 28.16,8.9 C29.61,9.58 30.16,10.1 30.16,10.75 C30.16,11.75 28.97,12.2 27.87,12.2 C26.6213922,12.2347163 25.3828929,11.9671181 24.26,11.42 L23.77,11.18 L23.23,14.5 C24.588592,15.0378958 26.0388904,15.306218 27.5,15.29 C31.5,15.29 34.15,13.29 34.18,10.22 C34.18,8.53 33.18,7.22 30.96,6.22 C29.62,5.53 28.79,5.08 28.8,4.38 C28.81,3.68 29.49,3.1 31,3.1 C31.986723,3.07916128 32.9661279,3.27367725 33.87,3.67 L34.21,3.84 L34.72,0.62" id="Shape"></path>
                    <path d="M44.56,0.27 L41.56,0.27 C40.6902854,0.17344705 39.8661958,0.680262139 39.56,1.5 L33.89,15.11 L37.89,15.11 L38.69,12.88 L43.6,12.88 C43.72,13.39 44.07,15.1 44.07,15.1 L47.63,15.1 L44.56,0.27 Z M39.83,9.84 L41.35,5.69 C41.35,5.69 41.67,4.83 41.86,4.28 L42.12,5.56 C42.12,5.56 42.86,9.1 43.01,9.84 L39.83,9.84 Z" id="Shape"></path>
                    <path d="M6.53,0.26 L0.35,0.26 L0.3,0.57 C4.55,1.64 8,4 9.62,8.34 L8.27,1.51 C8.0957314,0.70919743 7.34453827,0.169547188 6.53,0.26 Z" id="Shape"></path>
                </g>
            </g>
        </g>
    </g>
</svg>