<svg version="1" xmlns="http://www.w3.org/2000/svg" width="240" height="240" viewBox="0 0 180.000000 180.000000"><path d="M21.5 40.2c-.3.7-.4 23.8-.3 51.3l.3 50h137v-102l-68.3-.3c-54.1-.2-68.4 0-68.7 1zM146 51.9C132.8 69 115.7 83.6 99.5 91.6l-9.4 4.7-9.3-4.5c-16-7.7-33.8-23-47.3-40.6L27.9 44h124.2l-6.1 7.9zM43.9 70.8c4.9 4.8 15.4 13.8 21.1 18 .2.1-1.8 2.2-4.5 4.5-8.3 7-19.3 18.6-26.3 27.6-3.6 4.7-6.9 9-7.4 9.5-.4.6-.8-17.3-.8-39.8V49.9l5.8 7.3c3.2 4 8.7 10.1 12.1 13.6zm110 19.9c0 38.7-.1 40.7-1.7 38.3-6.9-9.9-23.3-27.9-33.2-36.2-2.4-2.1-4.2-3.9-3.9-4.1.2-.2 3.1-2.4 6.4-4.9 9.4-7.1 23.3-21.4 30-30.9 1.1-1.6 2.1-2.9 2.3-2.9.1 0 .2 18.3.1 40.7zm-74.5 5.9c11 5.2 11 5.2 23.9-1.3l6.9-3.4 4.5 3.7c8.6 7.1 20.2 19.2 28.1 29.4 2.3 3 5.1 6.6 6.2 8 1.1 1.4 2 2.8 2 3.2 0 .5-27.4.8-61 .8-33.5 0-61-.2-61-.5 0-2 16.3-21.9 25-30.5 3.8-3.8 15.2-14 15.6-14 .1 0 4.5 2.1 9.8 4.6z"/></svg>