<?xml version="1.0" standalone="no"?>
<!DOCTYPE svg PUBLIC "-//W3C//DTD SVG 20010904//EN"
 "http://www.w3.org/TR/2001/REC-SVG-20010904/DTD/svg10.dtd">
<svg version="1.0" xmlns="http://www.w3.org/2000/svg"
 width="180.000000pt" height="180.000000pt" viewBox="0 0 180.000000 180.000000"
 preserveAspectRatio="xMidYMid meet">
<metadata>
Created by potrace 1.11, written by Peter Selinger 2001-2013
</metadata>
<g transform="translate(0.000000,180.000000) scale(0.100000,-0.100000)"
fill="#000000" stroke="none">
<path d="M215 1398 c-3 -7 -4 -238 -3 -513 l3 -500 685 0 685 0 0 510 0 510
-683 3 c-541 2 -684 0 -687 -10z m1245 -117 c-132 -171 -303 -317 -465 -397
l-94 -47 -93 45 c-160 77 -338 230 -473 406 l-56 72 621 0 621 0 -61 -79z
m-1021 -189 c49 -48 154 -138 211 -180 2 -1 -18 -22 -45 -45 -83 -70 -193
-186 -263 -276 -36 -47 -69 -90 -74 -95 -4 -6 -8 173 -8 398 l0 407 58 -73
c32 -40 87 -101 121 -136z m1100 -199 c0 -387 -1 -407 -17 -383 -69 99 -233
279 -332 362 -24 21 -42 39 -39 41 2 2 31 24 64 49 94 71 233 214 300 309 11
16 21 29 23 29 1 0 2 -183 1 -407z m-745 -59 c110 -52 110 -52 239 13 l69 34
45 -37 c86 -71 202 -192 281 -294 23 -30 51 -66 62 -80 11 -14 20 -28 20 -32
0 -5 -274 -8 -610 -8 -335 0 -610 2 -610 5 0 20 163 219 250 305 38 38 152
140 156 140 1 0 45 -21 98 -46z"/>
</g>
</svg>
